<svg width="284" height="60" viewBox="0 0 284 60" fill="none" xmlns="http://www.w3.org/2000/svg">
<path d="M35.3976 36.3906C35.3976 38.6665 35.0795 40.4826 34.4661 41.8389C33.8527 43.1952 33.0347 44.2297 32.0578 44.9194C31.0808 45.632 29.9903 46.0918 28.7861 46.3217C27.5819 46.5515 26.4005 46.6665 25.2418 46.6665H13.7227V13.586H26.4005C28.0363 13.586 29.3541 13.8619 30.3992 14.4136C31.4443 14.9653 32.2623 15.678 32.8757 16.5745C33.4891 17.4711 33.8981 18.4596 34.1253 19.54C34.3525 20.6205 34.4434 21.701 34.4207 22.7355C34.3752 25.7469 33.6255 27.7929 32.1714 28.8734C33.1256 29.3332 33.8981 30.1607 34.5115 31.3561C35.1022 32.5745 35.3976 34.2527 35.3976 36.3906ZM28.309 22.8504C28.309 21.8159 28.1954 21.0343 27.9455 20.5286C27.6955 20.0228 27.2184 19.7699 26.4914 19.7699H19.9253V26.3676H25.9007C26.8322 26.3676 27.4456 26.0458 27.7864 25.4251C28.1272 24.7814 28.309 23.9079 28.309 22.8504ZM29.1723 36.4366C29.1723 35.5171 29.1042 34.7814 28.9451 34.2527C28.8088 33.724 28.6043 33.2872 28.3771 32.9883C28.1499 32.6895 27.9 32.4826 27.6047 32.3906C27.332 32.2987 27.0594 32.2527 26.7867 32.2527H19.9253V40.1837H26.2642C27.3547 40.1837 28.1272 39.8849 28.5362 39.3102C28.9679 38.7125 29.1723 37.7699 29.1723 36.4366ZM60.2533 46.6665H39.4872V13.586H59.8898V19.9998H45.6671V26.0918H58.7538V32.5056H45.6671V40.2067H60.2533V46.6665ZM84.291 36.8964C84.291 43.8619 80.5877 47.3561 73.181 47.3561C69.5912 47.3561 66.8421 46.3217 64.9563 44.2757C63.0706 42.2067 62.139 39.0343 62.139 34.7355H68.1598C68.2053 35.678 68.3189 36.5745 68.4779 37.3561C68.637 38.1607 68.9323 38.8274 69.3413 39.4021C69.7503 39.9768 70.2728 40.4136 70.9317 40.7354C71.5906 41.0573 72.4312 41.2182 73.4536 41.2182C75.1349 41.2182 76.339 40.8964 77.0888 40.2757C77.8386 39.655 78.2248 38.4136 78.2248 36.6205C78.2248 35.678 78.0658 34.9883 77.7704 34.5745C77.475 34.1607 76.9979 33.8389 76.3618 33.586C75.6347 33.3102 74.7486 33.1033 73.7262 32.9423C72.7038 32.7814 71.5224 32.5286 70.2046 32.1607C69.1822 31.8619 68.228 31.5171 67.3646 31.1263C66.5013 30.7354 65.7288 30.2067 65.0699 29.4941C64.411 28.7814 63.9112 27.8619 63.5477 26.7355C63.1842 25.609 63.0024 24.1148 63.0024 22.2757C63.0024 20.9194 63.1614 19.7469 63.5022 18.7584C63.8203 17.7699 64.2747 16.9194 64.82 16.2297C65.3653 15.54 66.0015 14.9883 66.7058 14.5515C67.4328 14.1148 68.1598 13.7929 68.9096 13.563C69.6594 13.3332 70.4091 13.1722 71.1589 13.1033C71.9087 13.0343 72.613 12.9883 73.2264 12.9883C75.3621 12.9883 77.1115 13.3332 78.4293 13.9998C79.7698 14.6665 80.7922 15.563 81.5419 16.6205C82.2917 17.701 82.7915 18.9194 83.0414 20.2527C83.2914 21.609 83.4277 22.9423 83.4277 24.2527H77.5205C77.4296 23.701 77.3615 23.0803 77.2933 22.4136C77.2479 21.7469 77.0888 21.1492 76.8616 20.6665C76.6571 20.2297 76.3163 19.8389 75.7938 19.4941C75.2712 19.1492 74.4533 18.9653 73.34 18.9653C72.4766 18.9653 71.7496 19.0343 71.1816 19.1952C70.6136 19.3561 70.1819 19.586 69.8638 19.8849C69.5458 20.1837 69.3186 20.5975 69.205 21.0803C69.0914 21.563 69.0232 22.1607 69.0232 22.8274C69.0232 23.632 69.205 24.2067 69.5458 24.5515C69.8866 24.8964 70.5455 25.1952 71.4997 25.4481C72.4994 25.724 73.499 25.9538 74.5214 26.1377C75.5438 26.3217 76.5208 26.5515 77.475 26.8044C78.4293 27.0573 79.3154 27.4021 80.1333 27.8389C80.9512 28.2757 81.6782 28.8504 82.2917 29.609C82.9051 30.3676 83.405 31.3332 83.7458 32.5056C84.132 33.678 84.291 35.1492 84.291 36.8964ZM106.852 19.9768H99.3771V46.6665H93.1746V19.9768H85.6997V13.586H106.829V19.9768H106.852Z" fill="#95A8B6"/>
<path fill-rule="evenodd" clip-rule="evenodd" d="M115.872 60H277.093C280.91 60 284 56.8736 284 53.0345V6.98851C284 3.12644 280.91 0 277.093 0H115.872V60ZM146.044 39.4254C146.498 37.8622 146.794 36.23 146.93 34.5059V34.4829H140.932C140.727 35.4714 140.546 36.345 140.341 37.1266C140.159 37.9082 139.887 38.5748 139.546 39.1496C139.205 39.7243 138.751 40.1611 138.16 40.4599C137.569 40.7588 136.797 40.9197 135.797 40.9197C134.82 40.9197 133.957 40.7817 133.162 40.5059C132.367 40.23 131.708 39.7243 131.162 38.9657C130.617 38.23 130.185 37.1725 129.89 35.8392C129.595 34.4829 129.436 32.7588 129.436 30.5978C129.436 28.4599 129.527 26.6668 129.754 25.2185C129.981 23.7703 130.344 22.5978 130.844 21.7013C131.344 20.8047 132.026 20.1611 132.844 19.7703C133.662 19.3794 134.684 19.1726 135.888 19.1726C136.888 19.1726 137.683 19.3105 138.274 19.6093C138.864 19.9082 139.342 20.299 139.682 20.7817C140.023 21.2645 140.296 21.8622 140.455 22.5289C140.637 23.1955 140.796 23.9082 140.932 24.6438H146.794C146.635 23.2415 146.385 21.8162 146.021 20.4139C145.658 19.0116 145.067 17.7473 144.249 16.6438C143.408 15.5404 142.318 14.6438 140.932 13.9542C139.546 13.2645 137.774 12.9197 135.593 12.9197C133.434 12.9197 131.571 13.3105 130.004 14.0921C128.459 14.8737 127.164 16.0001 126.141 17.4484C125.119 18.9197 124.369 20.6898 123.892 22.7588C123.415 24.8277 123.165 27.1725 123.165 29.7473C123.165 32.5519 123.392 35.0346 123.847 37.2185C124.278 39.4024 125.005 41.2415 125.982 42.7358C126.982 44.207 128.254 45.3565 129.845 46.1381C131.435 46.9197 133.366 47.3105 135.638 47.3105C137.615 47.3105 139.296 46.9657 140.682 46.276C142.068 45.5863 143.204 44.6668 144.067 43.4944C144.931 42.345 145.59 40.9886 146.044 39.4254ZM165.629 46.6668H171.808V13.5863H165.629V25.9312H156.313V13.5863H150.134V46.6668H156.313V32.3909H165.629V46.6668ZM191.393 46.6668H197.868L188.621 13.5863H182.487L173.535 46.6668H179.783L181.464 39.8392H189.689L191.393 46.6668ZM185.6 23.0346L188.144 33.6783H182.987L185.6 23.0346ZM206.57 26.5289L216.022 46.6668H222.111V13.5863H215.976V33.5863L206.456 13.5863H200.39V46.6668H206.57V26.5289ZM244.967 46.6668H249.988H250.033V28.5519H237.992V34.6438H243.808C243.831 35.7243 243.717 36.6438 243.445 37.4024C243.172 38.1611 242.786 38.8047 242.309 39.2875C241.832 39.7702 241.264 40.1381 240.605 40.368C239.946 40.5978 239.264 40.7128 238.537 40.7128C237.265 40.7128 236.22 40.5059 235.402 40.0921C234.584 39.6783 233.925 39.0346 233.425 38.1381C232.925 37.2645 232.584 36.0921 232.38 34.6438C232.176 33.1955 232.085 31.4484 232.085 29.4254C232.085 27.5863 232.198 26.0001 232.425 24.6898C232.653 23.3794 233.016 22.299 233.516 21.4714C234.016 20.6438 234.652 20.0461 235.447 19.6553C236.22 19.2645 237.197 19.0806 238.333 19.0806C239.469 19.0806 240.355 19.2645 241.014 19.6093C241.673 19.9542 242.172 20.4139 242.49 20.9657C242.809 21.5174 243.013 22.1381 243.104 22.8507C243.195 23.5634 243.24 24.253 243.24 24.9197H249.556C249.556 23.4024 249.352 21.9082 248.966 20.4599C248.579 19.0346 247.943 17.7473 247.057 16.6208C246.171 15.5174 245.012 14.5978 243.581 13.9312C242.15 13.2645 240.423 12.9197 238.355 12.9197C230.017 12.9197 225.859 18.5289 225.859 29.7473C225.859 32.207 226.064 34.5059 226.45 36.6438C226.836 38.7817 227.495 40.6438 228.427 42.207C229.358 43.7703 230.585 44.9886 232.107 45.8852C233.63 46.7817 235.538 47.2185 237.81 47.2185C238.469 47.2185 239.151 47.1725 239.832 47.0576C240.514 46.9427 241.195 46.7588 241.832 46.4599C242.468 46.1611 243.058 45.7702 243.604 45.2645C244.149 44.7588 244.603 44.1151 244.967 43.3105V46.6668ZM253.873 46.6668H274.594V40.207H260.053V32.5059H273.094V26.0921H260.053V20.0001H274.23V13.5863H253.873V46.6668Z" fill="#95A8B6"/>
</svg>
