<svg width="284" height="58" viewBox="0 0 284 58" fill="none" xmlns="http://www.w3.org/2000/svg">
<g clip-path="url(#clip0_90_330)">
<path d="M17.1525 24.4519L28.2013 13.3829L39.2559 24.4577L45.6849 18.0167L28.2013 0.5L10.7236 18.0109L17.1525 24.4519Z" fill="#95A8B6"/>
<path d="M12.6119 28.999L6.18307 22.5581L-0.246094 28.9993L6.18275 35.4402L12.6119 28.999Z" fill="#95A8B6"/>
<path d="M17.1523 33.5479L28.2011 44.6169L39.2553 33.5425L45.6879 39.9799L45.6847 39.9835L28.2011 57.4998L10.7229 39.9893L10.7139 39.9803L17.1523 33.5479Z" fill="#95A8B6"/>
<path d="M50.2193 35.4436L56.6485 29.0024L50.2196 22.5615L43.7905 29.0027L50.2193 35.4436Z" fill="#95A8B6"/>
<path d="M34.7223 28.9965H34.725L28.2012 22.4604L23.3801 27.2906H23.3796L22.826 27.8457L21.6833 28.9907L21.6743 28.9996L21.6833 29.0091L28.2012 35.5392L34.725 29.0033L34.7281 28.9996L34.7223 28.9965Z" fill="#95A8B6"/>
<path d="M66.6704 14.312H80.6531C84.1235 14.312 86.7477 15.2043 88.5263 16.9888C89.9027 18.371 90.5906 20.084 90.5906 22.1274V22.2138C90.5906 23.0773 90.4841 23.8404 90.2698 24.5022C90.0559 25.1649 89.7701 25.7614 89.4129 26.294C89.0565 26.827 88.6422 27.2948 88.1713 27.6972C87.6999 28.1006 87.1935 28.4464 86.6511 28.7336C88.3955 29.3963 89.7688 30.2953 90.7699 31.4325C91.7706 32.5702 92.2717 34.1463 92.2717 36.161V36.247C92.2717 37.6291 92.0066 38.8378 91.4759 39.8747C90.9452 40.9106 90.1849 41.7745 89.1949 42.4655C88.205 43.1566 87.0146 43.6743 85.6234 44.0201C84.2322 44.3654 82.6905 44.5378 80.9986 44.5378H66.6704V14.312ZM79.2551 26.5317C80.7209 26.5317 81.8848 26.2805 82.7462 25.7763C83.6081 25.2725 84.039 24.459 84.039 23.3366V23.2502C84.039 22.2431 83.6651 21.4733 82.9183 20.9402C82.171 20.4076 81.0935 20.1411 79.6861 20.1411H73.1349V26.5317H79.2551ZM81.0225 38.7091C82.4878 38.7091 83.6364 38.4435 84.4704 37.9104C85.3035 37.3779 85.7205 36.5499 85.7205 35.4271V35.3412C85.7205 34.3336 85.3322 33.535 84.5567 32.9443C83.7806 32.355 82.531 32.0597 80.8068 32.0597H73.1349V38.7095H81.0225V38.7091Z" fill="#95A8B6"/>
<path d="M100.6 14.312H107.238V44.5387H100.6V14.312Z" fill="#95A8B6"/>
<path d="M117.291 14.312H123.411L137.548 32.9231V14.312H144.099V44.5387H138.453L123.842 25.3234V44.5387H117.291V14.312Z" fill="#95A8B6"/>
<path d="M164.194 14.0957H170.314L183.245 44.5381H176.305L173.547 37.759H160.789L158.031 44.5381H151.263L164.194 14.0957ZM171.176 31.8858L167.167 22.0841L163.16 31.8858H171.176Z" fill="#95A8B6"/>
<path d="M190.41 14.312H196.53L210.667 32.9231V14.312H217.218V44.5387H211.572L196.961 25.3234V44.5387H190.41V14.312Z" fill="#95A8B6"/>
<path d="M241.107 45.0556C238.893 45.0556 236.84 44.6523 234.943 43.8469C233.046 43.0415 231.409 41.9398 230.029 40.5433C228.65 39.1473 227.572 37.4991 226.797 35.5992C226.021 33.699 225.633 31.6695 225.633 29.5103V29.4243C225.633 27.2652 226.021 25.2433 226.797 23.3575C227.572 21.472 228.65 19.8167 230.029 18.3918C231.408 16.9669 233.061 15.8437 234.985 15.0234C236.91 14.2031 239.038 13.793 241.365 13.793C242.772 13.793 244.058 13.9087 245.221 14.1383C246.385 14.3693 247.441 14.6853 248.39 15.0882C249.338 15.4916 250.214 15.981 251.019 16.5563C251.822 17.1326 252.57 17.7656 253.26 18.4566L249.037 23.3359C247.857 22.2711 246.658 21.4356 245.438 20.8314C244.216 20.2272 242.844 19.9247 241.321 19.9247C240.057 19.9247 238.886 20.1696 237.809 20.659C236.732 21.1483 235.805 21.8245 235.029 22.688C234.253 23.5515 233.65 24.5523 233.218 25.689C232.788 26.8267 232.573 28.0427 232.573 29.3379V29.4239C232.573 30.7191 232.788 31.9432 233.218 33.0939C233.65 34.2459 234.245 35.253 235.007 36.1165C235.768 36.98 236.688 37.6643 237.765 38.1681C238.844 38.6723 240.029 38.9235 241.321 38.9235C243.046 38.9235 244.503 38.607 245.695 37.9736C246.888 37.3411 248.074 36.4771 249.252 35.3827L253.476 39.6578C252.7 40.4929 251.894 41.2416 251.062 41.9029C250.229 42.5656 249.316 43.1338 248.325 43.6092C247.334 44.0837 246.248 44.4443 245.071 44.6883C243.892 44.9327 242.571 45.0556 241.107 45.0556Z" fill="#95A8B6"/>
<path d="M261.285 14.312H283.999V20.228H267.837V26.3597H282.06V32.2753H267.837V38.6231H284.216V44.5387H261.285V14.312Z" fill="#95A8B6"/>
</g>
<defs>
<clipPath id="clip0_90_330">
<rect width="284" height="57" fill="white" transform="translate(0 0.5)"/>
</clipPath>
</defs>
</svg>
