<svg width="300" height="32" viewBox="0 0 300 32" fill="none" xmlns="http://www.w3.org/2000/svg">
<g clip-path="url(#clip0_90_344)">
<path fill-rule="evenodd" clip-rule="evenodd" d="M187.393 5.17223C187.361 4.63273 187.493 4.09618 187.77 3.63179C188.048 3.1674 188.459 2.79649 188.95 2.5669C189.318 2.39443 189.721 2.30652 190.127 2.30965C190.534 2.31278 190.935 2.40688 191.3 2.58499C191.665 2.7631 191.985 3.02067 192.237 3.33864C192.489 3.65661 192.666 4.02686 192.754 4.422C192.843 4.81715 192.841 5.22708 192.749 5.62148C192.657 6.01588 192.478 6.38467 192.223 6.70057C191.969 7.01647 191.647 7.2714 191.28 7.44651C190.913 7.62162 190.512 7.71243 190.105 7.71223C189.584 7.72778 189.071 7.58943 188.629 7.31463C188.187 7.03983 187.837 6.64091 187.623 6.16823C187.482 5.85446 187.403 5.51605 187.393 5.17223ZM187.594 10.0322H192.596V28.0322H187.594V10.0322ZM53.8392 4.03223H44.1963V28.0322H54.5222C59.9262 28.0322 62.8191 25.2122 62.8191 21.3922C62.8901 19.9205 62.3714 18.4809 61.377 17.3896C60.3826 16.2984 58.9937 15.6447 57.5155 15.5722V15.3322C58.7466 15.1435 59.8671 14.5164 60.6688 13.5674C61.4706 12.6184 61.8991 11.412 61.8749 10.1722C61.8749 6.59223 59.1628 4.03223 53.8392 4.03223ZM56.7119 10.9922C56.7119 12.8922 55.0847 14.0322 53.0758 14.0322L49.2186 14.0922V8.09223H53.1561C55.4262 8.09223 56.7119 9.09223 56.7119 10.9922ZM57.4552 20.8522C57.4552 22.6522 56.2901 23.8322 53.4374 23.8322H49.2186V17.4722H53.4374C53.9293 17.4016 54.4307 17.4356 54.9085 17.5719C55.3863 17.7083 55.8296 17.9439 56.2093 18.2633C56.5889 18.5827 56.8963 18.9785 57.111 19.4248C57.3258 19.871 57.4431 20.3575 57.4552 20.8522ZM65.2901 28.0322H70.3727L70.2923 4.03223H65.2901V28.0322ZM73.0043 19.0922C73.0043 13.5122 76.4195 9.79223 81.9039 9.79223C87.3883 9.79223 90.8035 13.5122 90.8035 19.0922C90.8035 24.6722 87.3883 28.3722 81.9039 28.3722C76.4195 28.3722 73.0043 24.6522 73.0043 19.0922ZM85.7008 19.0815C85.6981 15.9482 84.3923 13.6322 81.924 13.6322C79.453 13.6322 78.0869 15.9522 78.0869 19.0922C78.0869 22.2322 79.3927 24.5322 81.924 24.5322C84.4526 24.5322 85.6981 22.2175 85.7008 19.0815ZM101.571 9.79223C96.0869 9.79223 92.6919 13.5722 92.6919 19.0922C92.6919 24.5722 96.0267 28.3722 101.571 28.3722C106.333 28.3722 109.366 25.5722 109.607 21.4322H104.866C104.814 22.2562 104.445 23.0285 103.835 23.5876C103.224 24.1466 102.421 24.4493 101.592 24.4322C99.241 24.4322 97.7343 22.3722 97.7343 19.0322C97.7343 15.6922 99.2611 13.6922 101.592 13.6922C102.421 13.6751 103.224 13.9777 103.835 14.5368C104.445 15.0959 104.814 15.8682 104.866 16.6922H109.607C109.446 12.5322 106.292 9.79223 101.571 9.79223ZM112.239 4.03223H117.261V16.8522H117.522L123.328 10.0322H129.074L122.364 17.8322L129.415 28.0322H123.549L118.607 20.7722L117.261 22.3122V28.0322H112.239V4.03223ZM138.275 9.79223C132.79 9.79223 129.395 13.5722 129.395 19.0922C129.395 24.5722 132.73 28.3722 138.315 28.3722C143.096 28.3722 146.109 25.5722 146.35 21.4322H141.629C141.573 22.2581 141.199 23.0306 140.586 23.5893C139.972 24.148 139.166 24.4499 138.335 24.4322C135.984 24.4322 134.478 22.3722 134.478 19.0322C134.478 15.6922 136.004 13.6922 138.335 13.6922C139.166 13.6755 139.971 13.9777 140.585 14.5362C141.198 15.0947 141.572 15.8667 141.629 16.6922H146.31C146.17 12.5322 142.996 9.79223 138.275 9.79223ZM153.964 28.0322H148.962V4.03223H153.824V13.2122H154.045C154.453 12.1369 155.2 11.2223 156.174 10.6057C157.149 9.9891 158.298 9.70366 159.449 9.79223C163.205 9.79223 165.696 12.3522 165.696 16.5722V28.0322H160.674V17.4522C160.74 17.0031 160.705 16.545 160.571 16.111C160.437 15.6771 160.209 15.2781 159.901 14.9429C159.594 14.6075 159.215 14.3446 158.793 14.1733C158.371 14.0019 157.915 13.9264 157.46 13.9522C156.734 13.9237 156.018 14.1288 155.419 14.5371C154.819 14.9454 154.368 15.5351 154.132 16.2189C153.975 16.6726 153.918 17.1546 153.964 17.6322V28.0322ZM174.937 17.4522C171.362 17.7922 168.147 19.0122 168.147 23.0122C168.147 26.5722 170.699 28.3722 174.154 28.3722C175.216 28.4537 176.278 28.2292 177.215 27.7256C178.152 27.222 178.924 26.4605 179.437 25.5322H179.578V28.0322H184.339V15.8722C184.339 11.5722 180.683 9.77223 176.665 9.77223C172.326 9.77223 169.493 11.8322 168.79 15.1122L173.431 15.4922C173.656 14.8429 174.098 14.2901 174.683 13.9261C175.268 13.562 175.96 13.4089 176.645 13.4922C178.353 13.4922 179.317 14.3522 179.317 15.8322C179.317 17.0122 178.092 17.1522 174.937 17.4522ZM179.357 19.5922V21.5922C179.329 22.0522 179.209 22.502 179.004 22.9152C178.799 23.3284 178.513 23.6969 178.164 23.9989C177.814 24.301 177.407 24.5304 176.967 24.6736C176.527 24.8167 176.062 24.8706 175.6 24.8322C174.054 24.8322 172.949 24.1322 172.949 22.7322C172.949 21.3322 174.114 20.6322 175.882 20.3922C177.073 20.295 178.244 20.0255 179.357 19.5922ZM195.871 28.0322H200.973L200.893 17.6322C200.837 17.1594 200.885 16.6801 201.033 16.2274C201.18 15.7747 201.425 15.3592 201.75 15.0095C202.074 14.6599 202.471 14.3843 202.912 14.2018C203.354 14.0193 203.83 13.9341 204.308 13.9522C204.762 13.9302 205.216 14.0083 205.637 14.1808C206.057 14.3533 206.434 14.6161 206.741 14.9503C207.048 15.2845 207.277 15.682 207.412 16.1144C207.547 16.5469 207.585 17.0036 207.522 17.4522V28.0322H212.545V16.5722C212.545 12.3722 210.074 9.79223 206.297 9.79223C205.144 9.72175 203.998 10.014 203.021 10.6278C202.044 11.2416 201.285 12.1457 200.853 13.2122H200.652V10.0322H195.871V28.0322Z" fill="#95A8B6"/>
<path opacity="0.6" fill-rule="evenodd" clip-rule="evenodd" d="M267.791 10.0322H263.009L262.989 28.0322H268.012V17.2322C267.95 16.6103 268.083 15.9847 268.393 15.4413C268.703 14.8979 269.174 14.4634 269.742 14.1975C270.119 14.021 270.528 13.9239 270.945 13.9122C271.517 13.887 272.082 14.0475 272.555 14.3694C273.029 14.6913 273.384 15.1573 273.568 15.6975C273.69 16.0548 273.734 16.4362 273.697 16.8122V28.0322H278.558V17.0322C278.515 16.6306 278.558 16.2243 278.686 15.8409C278.814 15.4576 279.023 15.106 279.3 14.8102C279.576 14.5143 279.913 14.281 280.287 14.126C280.662 13.9711 281.066 13.8982 281.471 13.9122C281.862 13.8948 282.252 13.9624 282.613 14.1102C282.975 14.2579 283.3 14.4824 283.566 14.7679C283.832 15.0534 284.032 15.3931 284.152 15.7634C284.273 16.1337 284.311 16.5257 284.264 16.9122V28.0322H289.286V16.0322C289.324 14.712 288.91 13.4183 288.111 12.3635C287.313 11.3086 286.178 10.5554 284.893 10.2274C283.608 9.89943 282.249 10.0162 281.04 10.5586C279.83 11.101 278.842 12.0367 278.237 13.2122H277.956C277.651 12.1683 276.997 11.2597 276.101 10.6375C275.206 10.0153 274.123 9.71698 273.034 9.79216C271.937 9.74279 270.855 10.0497 269.949 10.6666C269.043 11.2835 268.363 12.1769 268.012 13.2122H267.791V10.0322ZM232.634 9.79216C227.15 9.79216 223.775 13.5722 223.775 19.0922C223.775 24.5722 227.09 28.3722 232.735 28.3722C237.516 28.3722 240.55 25.5722 240.771 21.4322H236.05C235.993 22.2581 235.62 23.0306 235.006 23.5893C234.392 24.148 233.586 24.4498 232.755 24.4322C230.425 24.4322 228.898 22.3722 228.898 19.0322C228.898 15.6922 230.425 13.6922 232.755 13.6922C233.586 13.6755 234.392 13.9777 235.005 14.5362C235.618 15.0947 235.992 15.8666 236.05 16.6922H240.67C240.529 12.5322 237.355 9.79216 232.634 9.79216ZM216.791 23.5455C216.397 23.9368 216.128 24.4356 216.019 24.9789C215.909 25.5221 215.964 26.0855 216.176 26.5977C216.388 27.1099 216.748 27.5481 217.21 27.8568C217.673 28.1655 218.216 28.3309 218.773 28.3322C219.235 28.3321 219.69 28.2187 220.097 28.002C220.505 27.7853 220.853 27.4719 221.11 27.0896C221.367 26.7073 221.525 26.2678 221.571 25.81C221.617 25.3523 221.549 24.8903 221.373 24.465C221.197 24.0397 220.918 23.6641 220.561 23.3715C220.205 23.0789 219.781 22.8783 219.328 22.7874C218.875 22.6965 218.407 22.7181 217.964 22.8503C217.522 22.9825 217.119 23.2213 216.791 23.5455ZM242.599 19.0922C242.599 13.5122 246.014 9.79216 251.498 9.79216C256.983 9.79216 260.378 13.5122 260.378 19.0922C260.378 24.6722 256.983 28.3722 251.498 28.3722C246.014 28.3722 242.599 24.6522 242.599 19.0922ZM255.295 19.0828C255.292 15.9468 253.987 13.6322 251.518 13.6322C249.047 13.6322 247.681 15.9522 247.681 19.0922C247.681 22.2322 248.987 24.5322 251.518 24.5322C254.047 24.5322 255.292 22.2175 255.295 19.0828Z" fill="#95A8B6"/>
<path d="M2.75077 11.6294L1.28425 13.0894C0.878346 13.4776 0.555404 13.9434 0.334802 14.4589C0.114201 14.9745 0.000488281 15.529 0.000488281 16.0894C0.000488281 16.6497 0.114201 17.2043 0.334802 17.7198C0.555404 18.2354 0.878346 18.7012 1.28425 19.0894L13.0981 30.9681C13.3793 31.2534 13.7034 31.4894 14.0624 31.6681V17.2694L2.75077 11.6294Z" fill="#95A8B6"/>
<path d="M29.3936 11.6294L30.8601 13.0894C31.266 13.4776 31.589 13.9434 31.8096 14.4589C32.0302 14.9745 32.1439 15.529 32.1439 16.0894C32.1439 16.6497 32.0302 17.2043 31.8096 17.7198C31.589 18.2354 31.266 18.7012 30.8601 19.0894L19.0449 30.9681C18.7637 31.2534 18.4396 31.4894 18.0806 31.6681V17.2694L29.3936 11.6294Z" fill="#95A8B6"/>
<path d="M26.5553 8.64936L19.1624 1.26935C18.7711 0.867598 18.3028 0.548178 17.7852 0.330045C17.2675 0.111912 16.7111 -0.000488281 16.149 -0.000488281C15.5869 -0.000488281 15.0306 0.111912 14.5129 0.330045C13.9953 0.548178 13.5269 0.867598 13.1356 1.26935L5.72266 8.64936L16.1089 13.8094L26.5553 8.64936Z" fill="#95A8B6"/>
</g>
<defs>
<clipPath id="clip0_90_344">
<rect width="300" height="32" fill="white"/>
</clipPath>
</defs>
</svg>
