<svg width="92" height="92" viewBox="0 0 92 92" fill="none" xmlns="http://www.w3.org/2000/svg">
<rect x="0.518555" y="0.549316" width="90.8001" height="90.8001" rx="5.83156" fill="white"/>
<circle cx="45.9185" cy="45.9492" r="13.898" fill="#3AD5AD"/>
<circle cx="45.9184" cy="45.9492" r="24.0898" fill="#3AD5AD" fill-opacity="0.34"/>
<path d="M50.3934 43.1342C50.6082 43.349 50.9566 43.349 51.1714 43.1342C51.3862 42.9193 51.3862 42.571 51.1714 42.3562L49.7044 40.8892C49.4895 40.6743 49.1412 40.6743 48.9264 40.8892L47.4594 42.3562C47.2445 42.571 47.2445 42.9193 47.4594 43.1342C47.6742 43.349 48.0225 43.349 48.2374 43.1342L48.7653 42.6063V50.0802C48.7653 50.384 49.0116 50.6303 49.3154 50.6303C49.6192 50.6303 49.8655 50.384 49.8655 50.0802V42.6063L50.3934 43.1342Z" fill="white"/>
<path d="M45.3034 49.6912C45.0885 49.4764 44.7402 49.4764 44.5254 49.6912L43.9975 50.2191V42.7452C43.9975 42.4413 43.7512 42.195 43.4473 42.195C43.1435 42.195 42.8972 42.4413 42.8972 42.7452V50.2191L42.3693 49.6912C42.1545 49.4764 41.8062 49.4764 41.5913 49.6912C41.3765 49.906 41.3765 50.2544 41.5913 50.4692L43.0583 51.9362C43.2732 52.1511 43.6215 52.1511 43.8363 51.9362L45.3034 50.4692C45.5182 50.2544 45.5182 49.906 45.3034 49.6912Z" fill="white"/>
</svg>
