<svg width="201" height="182" viewBox="0 0 201 182" fill="none" xmlns="http://www.w3.org/2000/svg">
<g filter="url(#filter0_b_166_334)">
<rect x="0.906738" y="0.169434" width="199.204" height="181.665" rx="4.63266" fill="url(#paint0_linear_166_334)" fill-opacity="0.4"/>
<circle cx="98.6562" cy="53.9086" r="8.33878" fill="white"/>
<path fill-rule="evenodd" clip-rule="evenodd" d="M90.3174 55.7617C90.3174 50.1329 94.8804 45.5698 100.509 45.5698C106.138 45.5698 110.701 50.1329 110.701 55.7617C110.701 61.3905 106.138 65.9535 100.509 65.9535C94.8804 65.9535 90.3174 61.3905 90.3174 55.7617ZM99.3113 60.123L106.724 52.7107L105.413 51.4004L98.6562 58.1575L96.0685 55.5698L94.7582 56.8801L98.001 60.123C98.3628 60.4848 98.9495 60.4848 99.3113 60.123Z" fill="#38E7BA"/>
<path d="M67.2612 92.5226V94.9835H62.1023V100.142H59.6414V94.9835H54.5121V92.5226H59.6414V87.3933H62.1023V92.5226H67.2612ZM84.3664 91.4849C86.3232 91.4849 87.9737 92.068 89.3177 93.2342C90.6816 94.3806 91.3635 95.9718 91.3635 98.0077C91.3635 100.024 90.6717 101.615 89.2881 102.781C87.9045 103.947 86.2244 104.53 84.2478 104.53C82.6665 104.53 81.2532 104.155 80.008 103.404C78.7627 102.633 77.893 101.526 77.3988 100.083L79.7411 98.7489C80.0178 99.757 80.5515 100.528 81.3422 101.062C82.1328 101.575 83.1013 101.832 84.2478 101.832C85.5523 101.832 86.6098 101.496 87.4202 100.824C88.2306 100.152 88.6358 99.2134 88.6358 98.0077C88.6358 96.8019 88.2306 95.8631 87.4202 95.191C86.6098 94.4992 85.5721 94.1533 84.3071 94.1533H78.4366L79.2074 83.3907H90.563V85.9702H81.698L81.3422 91.4849H84.3664ZM109.033 97.6222V100.202H106.513V104.145H103.756V100.202H93.1712V97.6222L100.613 83.3907H103.578L96.1361 97.6222H103.756V91.7517H106.513V97.6222H109.033ZM124.898 101.595C123.495 103.552 121.528 104.53 118.998 104.53C116.468 104.53 114.501 103.552 113.098 101.595C111.694 99.6384 110.993 97.0293 110.993 93.7679C110.993 90.5065 111.694 87.8974 113.098 85.9405C114.501 83.9837 116.468 83.0053 118.998 83.0053C121.528 83.0053 123.495 83.9837 124.898 85.9405C126.301 87.8974 127.003 90.5065 127.003 93.7679C127.003 97.0293 126.301 99.6384 124.898 101.595ZM115.114 99.7273C116.023 101.131 117.318 101.832 118.998 101.832C120.678 101.832 121.973 101.131 122.882 99.7273C123.811 98.3239 124.275 96.3374 124.275 93.7679C124.275 91.1983 123.811 89.2118 122.882 87.8084C121.973 86.3853 120.678 85.6737 118.998 85.6737C117.318 85.6737 116.023 86.3754 115.114 87.7788C114.205 89.1822 113.75 91.1785 113.75 93.7679C113.75 96.3374 114.205 98.3239 115.114 99.7273ZM143.603 98.6007C143.603 100.221 143.069 101.556 142.002 102.603C140.935 103.651 139.551 104.273 137.851 104.471V107.11H135.983V104.501C134.362 104.382 132.979 103.937 131.832 103.167C130.706 102.396 129.885 101.358 129.371 100.053L131.743 98.6896C132.415 100.528 133.829 101.566 135.983 101.803V94.6277C135.094 94.3114 134.372 94.0248 133.819 93.7679C133.285 93.4911 132.722 93.1255 132.129 92.6709C131.536 92.2162 131.091 91.6628 130.795 91.0105C130.518 90.3385 130.38 89.5676 130.38 88.6979C130.38 87.0968 130.913 85.7923 131.981 84.7842C133.048 83.7761 134.382 83.1931 135.983 83.0349V80.4258H137.851V83.0646C139.037 83.2227 140.095 83.6378 141.024 84.3098C141.953 84.9819 142.674 85.8911 143.188 87.0375L140.875 88.3421C140.302 86.8992 139.294 86.0394 137.851 85.7626V92.5819C138.76 92.9179 139.482 93.2144 140.015 93.4714C140.549 93.7283 141.132 94.094 141.765 94.5684C142.397 95.023 142.862 95.5863 143.158 96.2584C143.455 96.9304 143.603 97.7112 143.603 98.6007ZM133.107 88.6979C133.107 89.449 133.335 90.0617 133.789 90.5361C134.244 91.0105 134.975 91.4552 135.983 91.8703V85.733C135.114 85.8516 134.412 86.1777 133.878 86.7114C133.364 87.2253 133.107 87.8875 133.107 88.6979ZM137.851 101.743C138.8 101.605 139.531 101.259 140.045 100.706C140.579 100.133 140.846 99.4407 140.846 98.6303C140.846 97.8199 140.599 97.1775 140.104 96.7031C139.63 96.209 138.879 95.7445 137.851 95.3096V101.743Z" fill="#27BE98"/>
<path d="M43.817 128.409C44.3209 128.624 44.7128 128.936 44.9927 129.347C45.2726 129.757 45.4125 130.243 45.4125 130.802C45.4125 131.642 45.0953 132.328 44.4608 132.86C43.8357 133.392 43.0053 133.658 41.9696 133.658C41.0272 133.658 40.2668 133.448 39.6883 133.028C39.1191 132.608 38.7179 132.067 38.4846 131.404L39.5903 130.774C39.8796 131.875 40.6726 132.426 41.9696 132.426C42.6507 132.426 43.1779 132.277 43.5511 131.978C43.9243 131.67 44.1109 131.264 44.1109 130.76C44.1109 130.257 43.9337 129.851 43.5791 129.543C43.2339 129.235 42.7487 129.081 42.1235 129.081H40.9759V127.891H41.8016C42.3988 127.891 42.8746 127.747 43.2292 127.457C43.5838 127.159 43.761 126.772 43.761 126.296C43.761 125.829 43.5931 125.451 43.2572 125.162C42.9306 124.864 42.4734 124.714 41.8856 124.714C40.8033 124.714 40.0802 125.195 39.7163 126.156L38.6246 125.526C39.2124 124.173 40.2994 123.497 41.8856 123.497C42.828 123.497 43.5884 123.758 44.1669 124.28C44.7547 124.803 45.0487 125.465 45.0487 126.268C45.0487 127.201 44.6381 127.915 43.817 128.409ZM52.6267 126.478H53.8443V133.476H52.6267V132.272C52.0202 133.196 51.1385 133.658 49.9815 133.658C49.0018 133.658 48.1667 133.303 47.4763 132.594C46.7858 131.875 46.4406 131.003 46.4406 129.977C46.4406 128.95 46.7858 128.083 47.4763 127.373C48.1667 126.655 49.0018 126.296 49.9815 126.296C51.1385 126.296 52.0202 126.758 52.6267 127.681V126.478ZM50.1354 132.482C50.8446 132.482 51.4371 132.244 51.9129 131.768C52.3888 131.283 52.6267 130.686 52.6267 129.977C52.6267 129.268 52.3888 128.675 51.9129 128.199C51.4371 127.714 50.8446 127.471 50.1354 127.471C49.4357 127.471 48.8478 127.714 48.372 128.199C47.8961 128.675 47.6582 129.268 47.6582 129.977C47.6582 130.686 47.8961 131.283 48.372 131.768C48.8478 132.244 49.4357 132.482 50.1354 132.482ZM60.0978 126.478H61.3154V133.476H60.0978V130.956C59.538 131.199 58.9082 131.32 58.2084 131.32C57.3126 131.32 56.6175 131.11 56.123 130.69C55.6378 130.261 55.3952 129.631 55.3952 128.801V126.478H56.6129V128.731C56.6129 129.254 56.7528 129.627 57.0327 129.851C57.322 130.075 57.7418 130.187 58.2923 130.187C58.9548 130.187 59.5566 130.065 60.0978 129.823V126.478ZM68.2458 126.478H69.2255V133.476H68.0219V128.563L64.1451 133.476H63.1654V126.478H64.369V131.39L68.2458 126.478ZM74.368 133.658C73.3137 133.658 72.4366 133.308 71.7368 132.608C71.037 131.899 70.6871 131.022 70.6871 129.977C70.6871 128.932 71.037 128.059 71.7368 127.359C72.4366 126.65 73.3137 126.296 74.368 126.296C75.0585 126.296 75.6789 126.464 76.2294 126.8C76.7799 127.126 77.1905 127.569 77.4611 128.129L76.4394 128.717C76.2621 128.344 75.9868 128.045 75.6136 127.821C75.2497 127.597 74.8345 127.485 74.368 127.485C73.6682 127.485 73.0804 127.723 72.6045 128.199C72.138 128.675 71.9047 129.268 71.9047 129.977C71.9047 130.676 72.138 131.264 72.6045 131.74C73.0804 132.216 73.6682 132.454 74.368 132.454C74.8345 132.454 75.2544 132.347 75.6276 132.132C76.0008 131.908 76.2854 131.609 76.4814 131.236L77.517 131.838C77.2185 132.389 76.7893 132.832 76.2294 133.168C75.6696 133.494 75.0491 133.658 74.368 133.658ZM84.4188 126.478V133.476H83.2012V127.653H80.444V130.508C80.444 131.656 80.2107 132.459 79.7442 132.916C79.287 133.364 78.6386 133.55 77.7988 133.476V132.328C78.2747 132.393 78.6292 132.291 78.8625 132.02C79.1051 131.74 79.2264 131.227 79.2264 130.48V126.478H84.4188ZM87.1176 130.536C87.2389 131.162 87.5235 131.647 87.9713 131.992C88.4285 132.337 88.9883 132.51 89.6508 132.51C90.5745 132.51 91.2463 132.169 91.6662 131.488L92.7019 132.076C92.0208 133.13 90.9944 133.658 89.6228 133.658C88.5125 133.658 87.6074 133.312 86.9076 132.622C86.2172 131.922 85.872 131.04 85.872 129.977C85.872 128.922 86.2125 128.045 86.8936 127.345C87.5748 126.646 88.4565 126.296 89.5388 126.296C90.5652 126.296 91.4003 126.66 92.0441 127.387C92.6972 128.106 93.0238 128.974 93.0238 129.991C93.0238 130.168 93.0098 130.35 92.9818 130.536H87.1176ZM89.5388 127.443C88.8857 127.443 88.3445 127.63 87.9153 128.003C87.4861 128.367 87.2202 128.857 87.1176 129.473H91.7922C91.6895 128.81 91.4283 128.306 91.0084 127.961C90.5885 127.616 90.0987 127.443 89.5388 127.443ZM99.266 126.478H100.484V133.476H99.266V130.55H95.6411V133.476H94.4235V126.478H95.6411V129.389H99.266V126.478ZM108.243 132.594C107.525 133.303 106.652 133.658 105.626 133.658C104.6 133.658 103.727 133.303 103.009 132.594C102.3 131.885 101.945 131.012 101.945 129.977C101.945 128.941 102.3 128.069 103.009 127.359C103.727 126.65 104.6 126.296 105.626 126.296C106.652 126.296 107.525 126.65 108.243 127.359C108.962 128.069 109.321 128.941 109.321 129.977C109.321 131.012 108.962 131.885 108.243 132.594ZM105.626 132.468C106.326 132.468 106.914 132.23 107.39 131.754C107.865 131.278 108.103 130.686 108.103 129.977C108.103 129.268 107.865 128.675 107.39 128.199C106.914 127.723 106.326 127.485 105.626 127.485C104.936 127.485 104.352 127.723 103.877 128.199C103.401 128.675 103.163 129.268 103.163 129.977C103.163 130.686 103.401 131.278 103.877 131.754C104.352 132.23 104.936 132.468 105.626 132.468ZM119.098 126.478H120.315V133.476H119.098V130.55H115.473V133.476H114.255V126.478H115.473V129.389H119.098V126.478ZM127.963 126.478H129.181V133.476H127.963V132.272C127.357 133.196 126.475 133.658 125.318 133.658C124.338 133.658 123.503 133.303 122.813 132.594C122.122 131.875 121.777 131.003 121.777 129.977C121.777 128.95 122.122 128.083 122.813 127.373C123.503 126.655 124.338 126.296 125.318 126.296C126.475 126.296 127.357 126.758 127.963 127.681V126.478ZM125.472 132.482C126.181 132.482 126.774 132.244 127.249 131.768C127.725 131.283 127.963 130.686 127.963 129.977C127.963 129.268 127.725 128.675 127.249 128.199C126.774 127.714 126.181 127.471 125.472 127.471C124.772 127.471 124.184 127.714 123.708 128.199C123.233 128.675 122.995 129.268 122.995 129.977C122.995 130.686 123.233 131.283 123.708 131.768C124.184 132.244 124.772 132.482 125.472 132.482ZM137.814 133.658C136.759 133.658 135.882 133.308 135.182 132.608C134.483 131.899 134.133 131.022 134.133 129.977C134.133 128.932 134.483 128.059 135.182 127.359C135.882 126.65 136.759 126.296 137.814 126.296C138.504 126.296 139.125 126.464 139.675 126.8C140.226 127.126 140.636 127.569 140.907 128.129L139.885 128.717C139.708 128.344 139.432 128.045 139.059 127.821C138.695 127.597 138.28 127.485 137.814 127.485C137.114 127.485 136.526 127.723 136.05 128.199C135.584 128.675 135.35 129.268 135.35 129.977C135.35 130.676 135.584 131.264 136.05 131.74C136.526 132.216 137.114 132.454 137.814 132.454C138.28 132.454 138.7 132.347 139.073 132.132C139.446 131.908 139.731 131.609 139.927 131.236L140.963 131.838C140.664 132.389 140.235 132.832 139.675 133.168C139.115 133.494 138.495 133.658 137.814 133.658ZM146.437 126.478H147.654V133.476H146.437V130.956C145.877 131.199 145.247 131.32 144.547 131.32C143.652 131.32 142.957 131.11 142.462 130.69C141.977 130.261 141.734 129.631 141.734 128.801V126.478H142.952V128.731C142.952 129.254 143.092 129.627 143.372 129.851C143.661 130.075 144.081 130.187 144.631 130.187C145.294 130.187 145.896 130.065 146.437 129.823V126.478ZM151.884 125.33C151.744 125.47 151.571 125.54 151.366 125.54C151.161 125.54 150.983 125.47 150.834 125.33C150.694 125.181 150.624 125.003 150.624 124.798C150.624 124.593 150.694 124.42 150.834 124.28C150.983 124.14 151.161 124.07 151.366 124.07C151.571 124.07 151.744 124.14 151.884 124.28C152.024 124.42 152.094 124.593 152.094 124.798C152.094 125.003 152.024 125.181 151.884 125.33ZM154.543 125.33C154.403 125.47 154.23 125.54 154.025 125.54C153.82 125.54 153.642 125.47 153.493 125.33C153.353 125.181 153.283 125.003 153.283 124.798C153.283 124.593 153.353 124.42 153.493 124.28C153.642 124.14 153.82 124.07 154.025 124.07C154.23 124.07 154.403 124.14 154.543 124.28C154.683 124.42 154.753 124.593 154.753 124.798C154.753 125.003 154.683 125.181 154.543 125.33ZM150.358 130.536C150.479 131.162 150.764 131.647 151.212 131.992C151.669 132.337 152.229 132.51 152.891 132.51C153.815 132.51 154.487 132.169 154.907 131.488L155.942 132.076C155.261 133.13 154.235 133.658 152.863 133.658C151.753 133.658 150.848 133.312 150.148 132.622C149.458 131.922 149.113 131.04 149.113 129.977C149.113 128.922 149.453 128.045 150.134 127.345C150.815 126.646 151.697 126.296 152.779 126.296C153.806 126.296 154.641 126.66 155.285 127.387C155.938 128.106 156.264 128.974 156.264 129.991C156.264 130.168 156.25 130.35 156.222 130.536H150.358ZM152.779 127.443C152.126 127.443 151.585 127.63 151.156 128.003C150.727 128.367 150.461 128.857 150.358 129.473H155.033C154.93 128.81 154.669 128.306 154.249 127.961C153.829 127.616 153.339 127.443 152.779 127.443ZM162.597 126.478V127.653H160.218V133.476H159V127.653H156.607V126.478H162.597Z" fill="#000002" fill-opacity="0.4"/>
<rect x="1.37" y="0.632699" width="198.278" height="180.739" rx="4.16939" stroke="url(#paint1_linear_166_334)" stroke-opacity="0.14" stroke-width="0.926532"/>
</g>
<defs>
<filter id="filter0_b_166_334" x="-26.8892" y="-27.6265" width="254.796" height="237.257" filterUnits="userSpaceOnUse" color-interpolation-filters="sRGB">
<feFlood flood-opacity="0" result="BackgroundImageFix"/>
<feGaussianBlur in="BackgroundImageFix" stdDeviation="13.898"/>
<feComposite in2="SourceAlpha" operator="in" result="effect1_backgroundBlur_166_334"/>
<feBlend mode="normal" in="SourceGraphic" in2="effect1_backgroundBlur_166_334" result="shape"/>
</filter>
<linearGradient id="paint0_linear_166_334" x1="200.019" y1="172.374" x2="-66.8219" y2="-86.1283" gradientUnits="userSpaceOnUse">
<stop stop-color="white" stop-opacity="0.7"/>
<stop offset="0.843624" stop-color="white" stop-opacity="0"/>
</linearGradient>
<linearGradient id="paint1_linear_166_334" x1="200.111" y1="181.77" x2="12.9516" y2="0.169429" gradientUnits="userSpaceOnUse">
<stop stop-color="#55756D"/>
<stop offset="1" stop-color="#55756D" stop-opacity="0"/>
</linearGradient>
</defs>
</svg>
