<svg width="215" height="197" viewBox="0 0 215 197" fill="none" xmlns="http://www.w3.org/2000/svg">
<g filter="url(#filter0_b_106_2125)">
<rect width="215" height="196.07" rx="5" fill="url(#paint0_linear_106_2125)" fill-opacity="0.4"/>
<path fill-rule="evenodd" clip-rule="evenodd" d="M96.5 60C96.5 53.9249 101.425 49 107.5 49C113.575 49 118.5 53.9249 118.5 60C118.5 66.0751 113.575 71 107.5 71C101.425 71 96.5 66.0751 96.5 60ZM106.207 64.7071L114.207 56.7071L112.793 55.2929L105.5 62.5858L102.707 59.7929L101.293 61.2071L104.793 64.7071C105.183 65.0976 105.817 65.0976 106.207 64.7071Z" fill="#38E7BA"/>
<path d="M71.616 99.456V102.112H66.048V107.68H63.392V102.112H57.856V99.456H63.392V93.92H66.048V99.456H71.616ZM90.0775 98.336C92.1895 98.336 93.9708 98.9653 95.4215 100.224C96.8935 101.461 97.6295 103.179 97.6295 105.376C97.6295 107.552 96.8828 109.269 95.3895 110.528C93.8962 111.787 92.0828 112.416 89.9495 112.416C88.2428 112.416 86.7175 112.011 85.3735 111.2C84.0295 110.368 83.0908 109.173 82.5575 107.616L85.0855 106.176C85.3842 107.264 85.9602 108.096 86.8135 108.672C87.6668 109.227 88.7122 109.504 89.9495 109.504C91.3575 109.504 92.4988 109.141 93.3735 108.416C94.2482 107.691 94.6855 106.677 94.6855 105.376C94.6855 104.075 94.2482 103.061 93.3735 102.336C92.4988 101.589 91.3788 101.216 90.0135 101.216H83.6775L84.5095 89.6H96.7655V92.384H87.1975L86.8135 98.336H90.0775ZM116.701 104.96V107.744H113.981V112H111.005V107.744H99.5805V104.96L107.613 89.6H110.813L102.781 104.96H111.005V98.624H113.981V104.96H116.701ZM133.823 109.248C132.308 111.36 130.186 112.416 127.455 112.416C124.724 112.416 122.602 111.36 121.087 109.248C119.572 107.136 118.815 104.32 118.815 100.8C118.815 97.28 119.572 94.464 121.087 92.352C122.602 90.24 124.724 89.184 127.455 89.184C130.186 89.184 132.308 90.24 133.823 92.352C135.338 94.464 136.095 97.28 136.095 100.8C136.095 104.32 135.338 107.136 133.823 109.248ZM123.263 107.232C124.244 108.747 125.642 109.504 127.455 109.504C129.268 109.504 130.666 108.747 131.647 107.232C132.65 105.717 133.151 103.573 133.151 100.8C133.151 98.0267 132.65 95.8827 131.647 94.368C130.666 92.832 129.268 92.064 127.455 92.064C125.642 92.064 124.244 92.8213 123.263 94.336C122.282 95.8507 121.791 98.0053 121.791 100.8C121.791 103.573 122.282 105.717 123.263 107.232ZM154.011 106.016C154.011 107.765 153.435 109.205 152.283 110.336C151.131 111.467 149.638 112.139 147.803 112.352V115.2H145.787V112.384C144.038 112.256 142.545 111.776 141.307 110.944C140.091 110.112 139.206 108.992 138.651 107.584L141.211 106.112C141.937 108.096 143.462 109.216 145.787 109.472V101.728C144.827 101.387 144.049 101.077 143.451 100.8C142.875 100.501 142.267 100.107 141.627 99.616C140.987 99.1253 140.507 98.528 140.187 97.824C139.889 97.0987 139.739 96.2667 139.739 95.328C139.739 93.6 140.315 92.192 141.467 91.104C142.619 90.016 144.059 89.3867 145.787 89.216V86.4H147.803V89.248C149.083 89.4187 150.225 89.8667 151.227 90.592C152.23 91.3173 153.009 92.2987 153.563 93.536L151.067 94.944C150.449 93.3867 149.361 92.4587 147.803 92.16V99.52C148.785 99.8827 149.563 100.203 150.139 100.48C150.715 100.757 151.345 101.152 152.027 101.664C152.71 102.155 153.211 102.763 153.531 103.488C153.851 104.213 154.011 105.056 154.011 106.016ZM142.683 95.328C142.683 96.1387 142.929 96.8 143.419 97.312C143.91 97.824 144.699 98.304 145.787 98.752V92.128C144.849 92.256 144.091 92.608 143.515 93.184C142.961 93.7387 142.683 94.4533 142.683 95.328ZM147.803 109.408C148.827 109.259 149.617 108.885 150.171 108.288C150.747 107.669 151.035 106.923 151.035 106.048C151.035 105.173 150.769 104.48 150.235 103.968C149.723 103.435 148.913 102.933 147.803 102.464V109.408Z" fill="#38E7BA"/>
<path d="M46.2688 138.602C46.8126 138.834 47.2355 139.171 47.5377 139.614C47.8398 140.057 47.9908 140.581 47.9908 141.185C47.9908 142.091 47.6484 142.832 46.9636 143.406C46.2889 143.98 45.3927 144.267 44.2749 144.267C43.2578 144.267 42.437 144.04 41.8127 143.587C41.1984 143.134 40.7653 142.55 40.5136 141.835L41.7069 141.155C42.0191 142.343 42.8751 142.937 44.2749 142.937C45.01 142.937 45.579 142.776 45.9818 142.454C46.3846 142.122 46.586 141.684 46.586 141.14C46.586 140.596 46.3947 140.158 46.012 139.826C45.6394 139.493 45.1157 139.327 44.441 139.327H43.2024V138.043H44.0936C44.7381 138.043 45.2517 137.887 45.6344 137.575C46.017 137.253 46.2084 136.835 46.2084 136.321C46.2084 135.818 46.0271 135.41 45.6646 135.098C45.3121 134.775 44.8187 134.614 44.1842 134.614C43.0161 134.614 42.2356 135.133 41.8429 136.17L40.6646 135.49C41.2991 134.03 42.4723 133.3 44.1842 133.3C45.2013 133.3 46.0221 133.582 46.6464 134.146C47.2809 134.71 47.5981 135.425 47.5981 136.291C47.5981 137.298 47.155 138.068 46.2688 138.602ZM55.777 136.518H57.0912V144.07H55.777V142.771C55.1224 143.768 54.1708 144.267 52.9221 144.267C51.8647 144.267 50.9634 143.884 50.2182 143.119C49.473 142.343 49.1004 141.402 49.1004 140.294C49.1004 139.186 49.473 138.25 50.2182 137.484C50.9634 136.709 51.8647 136.321 52.9221 136.321C54.1708 136.321 55.1224 136.82 55.777 137.817V136.518ZM53.0882 142.998C53.8536 142.998 54.493 142.741 55.0066 142.227C55.5202 141.704 55.777 141.059 55.777 140.294C55.777 139.529 55.5202 138.889 55.0066 138.376C54.493 137.852 53.8536 137.59 53.0882 137.59C52.333 137.59 51.6985 137.852 51.1849 138.376C50.6713 138.889 50.4146 139.529 50.4146 140.294C50.4146 141.059 50.6713 141.704 51.1849 142.227C51.6985 142.741 52.333 142.998 53.0882 142.998ZM63.8405 136.518H65.1547V144.07H63.8405V141.351C63.2363 141.613 62.5566 141.744 61.8013 141.744C60.8345 141.744 60.0843 141.517 59.5506 141.064C59.0269 140.601 58.7651 139.921 58.7651 139.025V136.518H60.0793V138.95C60.0793 139.513 60.2303 139.916 60.5324 140.158C60.8446 140.4 61.2978 140.521 61.8919 140.521C62.6069 140.521 63.2565 140.39 63.8405 140.128V136.518ZM72.6347 136.518H73.6921V144.07H72.393V138.768L68.2087 144.07H67.1514V136.518H68.4504V141.82L72.6347 136.518ZM79.2423 144.267C78.1043 144.267 77.1577 143.889 76.4024 143.134C75.6472 142.368 75.2695 141.422 75.2695 140.294C75.2695 139.166 75.6472 138.224 76.4024 137.469C77.1577 136.704 78.1043 136.321 79.2423 136.321C79.9875 136.321 80.6572 136.502 81.2513 136.865C81.8455 137.217 82.2886 137.696 82.5806 138.3L81.4779 138.934C81.2866 138.532 80.9895 138.209 80.5867 137.968C80.1939 137.726 79.7458 137.605 79.2423 137.605C78.487 137.605 77.8526 137.862 77.339 138.376C76.8355 138.889 76.5837 139.529 76.5837 140.294C76.5837 141.049 76.8355 141.684 77.339 142.197C77.8526 142.711 78.487 142.968 79.2423 142.968C79.7458 142.968 80.199 142.852 80.6018 142.62C81.0046 142.378 81.3117 142.056 81.5232 141.653L82.641 142.303C82.3188 142.897 81.8555 143.375 81.2513 143.738C80.6471 144.09 79.9774 144.267 79.2423 144.267ZM90.09 136.518V144.07H88.7759V137.786H85.8001V140.868C85.8001 142.107 85.5483 142.973 85.0448 143.466C84.5514 143.949 83.8515 144.151 82.9451 144.07V142.832C83.4587 142.902 83.8414 142.791 84.0932 142.499C84.355 142.197 84.4859 141.643 84.4859 140.838V136.518H90.09ZM93.0028 140.898C93.1337 141.573 93.4409 142.097 93.9243 142.469C94.4177 142.842 95.0219 143.028 95.7369 143.028C96.7339 143.028 97.4589 142.66 97.9121 141.925L99.0299 142.56C98.2948 143.698 97.187 144.267 95.7067 144.267C94.5083 144.267 93.5315 143.894 92.7762 143.149C92.031 142.394 91.6584 141.442 91.6584 140.294C91.6584 139.156 92.026 138.209 92.7611 137.454C93.4963 136.699 94.4479 136.321 95.6161 136.321C96.7238 136.321 97.6251 136.714 98.32 137.499C99.0249 138.275 99.3774 139.211 99.3774 140.309C99.3774 140.5 99.3622 140.697 99.332 140.898H93.0028ZM95.6161 137.56C94.9111 137.56 94.3271 137.761 93.8638 138.164C93.4006 138.557 93.1136 139.085 93.0028 139.75H98.0481C97.9373 139.035 97.6553 138.491 97.2022 138.119C96.749 137.746 96.2203 137.56 95.6161 137.56ZM106.115 136.518H107.429V144.07H106.115V140.913H102.202V144.07H100.888V136.518H102.202V139.659H106.115V136.518ZM115.804 143.119C115.028 143.884 114.087 144.267 112.979 144.267C111.871 144.267 110.93 143.884 110.154 143.119C109.389 142.353 109.006 141.412 109.006 140.294C109.006 139.176 109.389 138.235 110.154 137.469C110.93 136.704 111.871 136.321 112.979 136.321C114.087 136.321 115.028 136.704 115.804 137.469C116.579 138.235 116.967 139.176 116.967 140.294C116.967 141.412 116.579 142.353 115.804 143.119ZM112.979 142.983C113.734 142.983 114.369 142.726 114.882 142.212C115.396 141.699 115.653 141.059 115.653 140.294C115.653 139.529 115.396 138.889 114.882 138.376C114.369 137.862 113.734 137.605 112.979 137.605C112.234 137.605 111.604 137.862 111.091 138.376C110.577 138.889 110.32 139.529 110.32 140.294C110.32 141.059 110.577 141.699 111.091 142.212C111.604 142.726 112.234 142.983 112.979 142.983ZM127.519 136.518H128.833V144.07H127.519V140.913H123.607V144.07H122.292V136.518H123.607V139.659H127.519V136.518ZM137.087 136.518H138.401V144.07H137.087V142.771C136.433 143.768 135.481 144.267 134.232 144.267C133.175 144.267 132.274 143.884 131.528 143.119C130.783 142.343 130.411 141.402 130.411 140.294C130.411 139.186 130.783 138.25 131.528 137.484C132.274 136.709 133.175 136.321 134.232 136.321C135.481 136.321 136.433 136.82 137.087 137.817V136.518ZM134.398 142.998C135.164 142.998 135.803 142.741 136.317 142.227C136.83 141.704 137.087 141.059 137.087 140.294C137.087 139.529 136.83 138.889 136.317 138.376C135.803 137.852 135.164 137.59 134.398 137.59C133.643 137.59 133.009 137.852 132.495 138.376C131.982 138.889 131.725 139.529 131.725 140.294C131.725 141.059 131.982 141.704 132.495 142.227C133.009 142.741 133.643 142.998 134.398 142.998ZM147.719 144.267C146.581 144.267 145.634 143.889 144.879 143.134C144.124 142.368 143.746 141.422 143.746 140.294C143.746 139.166 144.124 138.224 144.879 137.469C145.634 136.704 146.581 136.321 147.719 136.321C148.464 136.321 149.134 136.502 149.728 136.865C150.322 137.217 150.765 137.696 151.057 138.3L149.954 138.934C149.763 138.532 149.466 138.209 149.063 137.968C148.67 137.726 148.222 137.605 147.719 137.605C146.963 137.605 146.329 137.862 145.815 138.376C145.312 138.889 145.06 139.529 145.06 140.294C145.06 141.049 145.312 141.684 145.815 142.197C146.329 142.711 146.963 142.968 147.719 142.968C148.222 142.968 148.675 142.852 149.078 142.62C149.481 142.378 149.788 142.056 150 141.653L151.117 142.303C150.795 142.897 150.332 143.375 149.728 143.738C149.124 144.09 148.454 144.267 147.719 144.267ZM157.026 136.518H158.34V144.07H157.026V141.351C156.421 141.613 155.742 141.744 154.986 141.744C154.02 141.744 153.269 141.517 152.736 141.064C152.212 140.601 151.95 139.921 151.95 139.025V136.518H153.264V138.95C153.264 139.513 153.415 139.916 153.718 140.158C154.03 140.4 154.483 140.521 155.077 140.521C155.792 140.521 156.442 140.39 157.026 140.128V136.518ZM162.904 135.279C162.753 135.43 162.567 135.505 162.346 135.505C162.124 135.505 161.933 135.43 161.772 135.279C161.621 135.118 161.545 134.926 161.545 134.705C161.545 134.483 161.621 134.297 161.772 134.146C161.933 133.995 162.124 133.919 162.346 133.919C162.567 133.919 162.753 133.995 162.904 134.146C163.056 134.297 163.131 134.483 163.131 134.705C163.131 134.926 163.056 135.118 162.904 135.279ZM165.775 135.279C165.623 135.43 165.437 135.505 165.216 135.505C164.994 135.505 164.803 135.43 164.642 135.279C164.491 135.118 164.415 134.926 164.415 134.705C164.415 134.483 164.491 134.297 164.642 134.146C164.803 133.995 164.994 133.919 165.216 133.919C165.437 133.919 165.623 133.995 165.775 134.146C165.926 134.297 166.001 134.483 166.001 134.705C166.001 134.926 165.926 135.118 165.775 135.279ZM161.258 140.898C161.389 141.573 161.696 142.097 162.179 142.469C162.673 142.842 163.277 143.028 163.992 143.028C164.989 143.028 165.714 142.66 166.167 141.925L167.285 142.56C166.55 143.698 165.442 144.267 163.962 144.267C162.763 144.267 161.787 143.894 161.031 143.149C160.286 142.394 159.914 141.442 159.914 140.294C159.914 139.156 160.281 138.209 161.016 137.454C161.751 136.699 162.703 136.321 163.871 136.321C164.979 136.321 165.88 136.714 166.575 137.499C167.28 138.275 167.633 139.211 167.633 140.309C167.633 140.5 167.617 140.697 167.587 140.898H161.258ZM163.871 137.56C163.166 137.56 162.582 137.761 162.119 138.164C161.656 138.557 161.369 139.085 161.258 139.75H166.303C166.192 139.035 165.91 138.491 165.457 138.119C165.004 137.746 164.475 137.56 163.871 137.56ZM174.467 136.518V137.786H171.899V144.07H170.585V137.786H168.002V136.518H174.467Z" fill="white"/>
</g>
<defs>
<filter id="filter0_b_106_2125" x="-30" y="-30" width="275" height="256.07" filterUnits="userSpaceOnUse" color-interpolation-filters="sRGB">
<feFlood flood-opacity="0" result="BackgroundImageFix"/>
<feGaussianBlur in="BackgroundImageFix" stdDeviation="15"/>
<feComposite in2="SourceAlpha" operator="in" result="effect1_backgroundBlur_106_2125"/>
<feBlend mode="normal" in="SourceGraphic" in2="effect1_backgroundBlur_106_2125" result="shape"/>
</filter>
<linearGradient id="paint0_linear_106_2125" x1="214.901" y1="185.859" x2="-73.0991" y2="-93.1406" gradientUnits="userSpaceOnUse">
<stop stop-color="#ECECF1" stop-opacity="0.3"/>
<stop offset="0.843624" stop-opacity="0.25"/>
</linearGradient>
</defs>
</svg>
