<svg width="48" height="33" viewBox="0 0 48 33" fill="none" xmlns="http://www.w3.org/2000/svg">
<path d="M18.6972 31.311C18.5124 31.3207 18.3298 31.3274 18.1495 31.3313L18.1519 31.3394C17.0919 31.3444 16.1047 31.2769 15.2001 31.1617C11.1913 30.6513 8.58364 27.2459 7.31773 23.4081L8.8344 24.1204C8.81622 22.4221 9.30092 20.5031 10.3461 18.4519C14.1907 10.9068 24.1629 4.43094 32.6196 3.98774C35.1329 3.85602 37.2295 4.27195 38.8342 5.11969L38.6143 3.2622L39.4307 4.18926C40.5832 5.498 41.4667 7.01845 42.0332 8.66363C42.8582 10.8678 42.5732 13.702 40.9708 16.8469C37.1262 24.392 27.154 30.8678 18.6972 31.311Z" fill="url(#paint0_linear_151_203)"/>
<path d="M16.7023 28.1258C8.2455 28.569 4.50658 22.8118 8.35116 15.2666C12.1957 7.7215 22.1679 1.24568 30.6247 0.802484C39.0815 0.359284 42.8204 6.11653 38.9758 13.6617C35.1312 21.2068 25.159 27.6826 16.7023 28.1258Z" fill="url(#paint1_linear_151_203)"/>
<path d="M17.4529 25.1835C10.4049 25.5529 7.28882 20.7547 10.4929 14.4665C13.6971 8.17827 22.0081 2.78121 29.0561 2.41184C36.1041 2.04247 39.2202 6.84066 36.016 13.1289C32.8119 19.4171 24.5009 24.8141 17.4529 25.1835Z" stroke="white"/>
<path d="M19.5506 14.3281L22.681 14.9926L22.4813 16.9753L24.3204 17.3682L24.3763 17.3452L24.5718 15.3927L29.8297 16.5149L31.877 12.4419L25.0219 10.9742L25.1708 9.44465L23.2852 9.03429L23.1197 10.5747L19.0837 9.70797L13.6347 20.5486L16.154 21.0855L19.5506 14.3281Z" fill="white"/>
<defs>
<linearGradient id="paint0_linear_151_203" x1="6.4552" y1="25.2355" x2="40.505" y2="3.25658" gradientUnits="userSpaceOnUse">
<stop stop-color="#314974"/>
<stop offset="0.509178" stop-color="#90B9FF"/>
<stop offset="1" stop-color="#314974"/>
</linearGradient>
<linearGradient id="paint1_linear_151_203" x1="6.98464" y1="25.3236" x2="40.7259" y2="22.8015" gradientUnits="userSpaceOnUse">
<stop stop-color="#446296"/>
<stop offset="1" stop-color="#678ED1"/>
</linearGradient>
</defs>
</svg>
