<svg width="105" height="102" viewBox="0 0 105 102" fill="none" xmlns="http://www.w3.org/2000/svg">
<path d="M62.5298 79.8538C62.2609 80.0842 61.9919 80.3074 61.723 80.5235L61.7363 80.5329C60.1351 81.7773 58.5596 82.8268 57.0537 83.7076C50.3805 87.6107 42.4539 85.4902 36.0572 81.1488L39.1875 80.4591C37.1786 77.9056 35.6745 74.4306 34.866 70.1014C31.8918 54.1769 39.4552 32.7243 51.7593 22.1859C55.416 19.0539 59.0799 17.2384 62.5018 16.6515L60.0012 14.0919L62.3206 14.5449C65.5948 15.1844 68.7082 16.4588 71.4865 18.2921C75.3088 20.6713 78.1835 25.3008 79.4232 31.9382C82.3974 47.8628 74.834 69.3154 62.5298 79.8538Z" fill="url(#paint0_linear_152_208)"/>
<path d="M55.7893 77.3513C43.4852 87.8898 31.0996 83.5235 28.1254 67.5989C25.1512 51.6743 32.7146 30.2218 45.0187 19.6833C57.3229 9.14483 69.7084 13.5111 72.6826 29.4357C75.6568 45.3603 68.0934 66.8128 55.7893 77.3513Z" fill="url(#paint1_linear_152_208)"/>
<path d="M53.5825 72.4683C43.1366 81.4153 32.6215 77.7084 30.0965 64.1888C27.5714 50.6691 33.9926 32.4563 44.4386 23.5094C54.8845 14.5624 65.3996 18.2693 67.9247 31.789C70.4497 45.3086 64.0285 63.5214 53.5825 72.4683Z" stroke="white"/>
<path fill-rule="evenodd" clip-rule="evenodd" d="M43.4759 48.485L32.4354 57.9355L31.5663 53.2736L58.9685 29.8176L59.8377 34.4795L59.8363 34.4807C60.1162 35.8616 60.4404 37.5711 60.6349 39.3485C60.9109 41.8705 61.0063 45.1119 59.9903 48.1864C58.841 51.6643 56.1972 55.0913 53.4992 56.8245C50.6452 58.6578 47.577 58.7173 45.6512 55.2421C44.3075 52.8173 43.7885 50.6496 43.4759 48.485ZM56.5692 37.2773L46.7473 45.6847C47.0203 47.6628 47.4281 49.3772 48.5694 51.4368C49.8313 53.7139 51.6461 53.5639 53.2883 52.509C55.0864 51.3539 56.5519 49.2139 57.0427 47.7287C57.5096 46.3156 57.587 44.2528 57.3189 41.8032C57.1402 40.1701 56.8436 38.6262 56.5692 37.2773Z" fill="white"/>
<path d="M40.5252 53.3531L39.2389 43.6866L36.9184 45.9628L38.2048 55.6294L40.5252 53.3531Z" fill="white"/>
<path d="M46.4559 48.6287L45.1695 38.9621L42.8491 41.2384L44.1354 50.905L46.4559 48.6287Z" fill="white"/>
<defs>
<linearGradient id="paint0_linear_152_208" x1="32.2764" y1="94.042" x2="66.0575" y2="-1.78479" gradientUnits="userSpaceOnUse">
<stop stop-color="#007EAE"/>
<stop offset="0.515625" stop-color="#6DD5FD"/>
<stop offset="1" stop-color="#007EAE"/>
</linearGradient>
<linearGradient id="paint1_linear_152_208" x1="37.7871" y1="84.4405" x2="85.9994" y2="41.2506" gradientUnits="userSpaceOnUse">
<stop stop-color="#00A0DE"/>
<stop offset="1" stop-color="#30C5FF"/>
</linearGradient>
</defs>
</svg>
