<svg width="16" height="16" viewBox="0 0 16 16" fill="none" xmlns="http://www.w3.org/2000/svg">
<path fill-rule="evenodd" clip-rule="evenodd" d="M9.59026 10.2971C7.82341 11.7122 5.23713 11.6008 3.59927 9.96299C1.84191 8.20563 1.84191 5.35638 3.59927 3.59903C5.35663 1.84167 8.20587 1.84167 9.96323 3.59903C11.6011 5.23688 11.7125 7.82316 10.2974 9.59001L13.7345 13.0271C13.9297 13.2224 13.9297 13.5389 13.7345 13.7342C13.5392 13.9295 13.2226 13.9295 13.0273 13.7342L9.59026 10.2971ZM4.30638 9.25588C2.93954 7.88904 2.93954 5.67297 4.30638 4.30613C5.67321 2.9393 7.88929 2.9393 9.25612 4.30613C10.622 5.67196 10.623 7.88579 9.25913 9.25287C9.25812 9.25386 9.25712 9.25486 9.25611 9.25586C9.25511 9.25687 9.25411 9.25787 9.25312 9.25888C7.88604 10.6227 5.67221 10.6217 4.30638 9.25588Z" fill="#000002" fill-opacity="0.4"/>
</svg>
