<svg width="24" height="24" viewBox="0 0 24 24" fill="none" xmlns="http://www.w3.org/2000/svg">
<path fill-rule="evenodd" clip-rule="evenodd" d="M12 3C7.02944 3 3 7.02944 3 12C3 16.9706 7.02944 21 12 21C16.9706 21 21 16.9706 21 12C21 7.02944 16.9706 3 12 3ZM1 12C1 5.92487 5.92487 1 12 1C18.0751 1 23 5.92487 23 12C23 18.0751 18.0751 23 12 23C5.92487 23 1 18.0751 1 12Z" fill="white"/>
<path fill-rule="evenodd" clip-rule="evenodd" d="M11.2929 12.7071C11.1054 12.5196 11 12.2652 11 12V5H13V11H19V13H12C11.7348 13 11.4804 12.8946 11.2929 12.7071Z" fill="white"/>
</svg>
