<svg width="220" height="73" viewBox="0 0 220 73" fill="none" xmlns="http://www.w3.org/2000/svg">
<rect x="0.5" y="0.5" width="219" height="72" rx="4.5" fill="url(#paint0_linear_49_198)" fill-opacity="0.4"/>
<circle cx="28" cy="28" r="12" fill="#559AEB"/>
<path d="M31.24 30.008C31.24 30.8827 30.952 31.6027 30.376 32.168C29.8 32.7333 29.0533 33.0693 28.136 33.176V34.6H27.128V33.192C26.2533 33.128 25.5067 32.888 24.888 32.472C24.28 32.056 23.8373 31.496 23.56 30.792L24.84 30.056C25.2027 31.048 25.9653 31.608 27.128 31.736V27.864C26.648 27.6933 26.2587 27.5387 25.96 27.4C25.672 27.2507 25.368 27.0533 25.048 26.808C24.728 26.5627 24.488 26.264 24.328 25.912C24.1787 25.5493 24.104 25.1333 24.104 24.664C24.104 23.8 24.392 23.096 24.968 22.552C25.544 22.008 26.264 21.6933 27.128 21.608V20.2H28.136V21.624C28.776 21.7093 29.3467 21.9333 29.848 22.296C30.3493 22.6587 30.7387 23.1493 31.016 23.768L29.768 24.472C29.4587 23.6933 28.9147 23.2293 28.136 23.08V26.76C28.6267 26.9413 29.016 27.1013 29.304 27.24C29.592 27.3787 29.9067 27.576 30.248 27.832C30.5893 28.0773 30.84 28.3813 31 28.744C31.16 29.1067 31.24 29.528 31.24 30.008ZM25.576 24.664C25.576 25.0693 25.6987 25.4 25.944 25.656C26.1893 25.912 26.584 26.152 27.128 26.376V23.064C26.6587 23.128 26.28 23.304 25.992 23.592C25.7147 23.8693 25.576 24.2267 25.576 24.664ZM28.136 31.704C28.648 31.6293 29.0427 31.4427 29.32 31.144C29.608 30.8347 29.752 30.4613 29.752 30.024C29.752 29.5867 29.6187 29.24 29.352 28.984C29.096 28.7173 28.6907 28.4667 28.136 28.232V31.704Z" fill="white"/>
<path d="M53.568 19.8C55.0933 19.8 56.3573 20.344 57.36 21.432C58.3733 22.5093 58.88 23.832 58.88 25.4C58.88 26.968 58.3733 28.296 57.36 29.384C56.3573 30.4613 55.0933 31 53.568 31H49.2V19.8H53.568ZM53.568 29.592C54.7093 29.592 55.6427 29.192 56.368 28.392C57.0933 27.592 57.456 26.5947 57.456 25.4C57.456 24.2053 57.0933 23.208 56.368 22.408C55.6427 21.608 54.7093 21.208 53.568 21.208H50.688V29.592H53.568ZM67.2924 29.992C66.471 30.8027 65.4737 31.208 64.3004 31.208C63.127 31.208 62.1297 30.8027 61.3084 29.992C60.4977 29.1813 60.0924 28.184 60.0924 27C60.0924 25.816 60.4977 24.8187 61.3084 24.008C62.1297 23.1973 63.127 22.792 64.3004 22.792C65.4737 22.792 66.471 23.1973 67.2924 24.008C68.1137 24.8187 68.5244 25.816 68.5244 27C68.5244 28.184 68.1137 29.1813 67.2924 29.992ZM64.3004 29.848C65.1004 29.848 65.7724 29.576 66.3164 29.032C66.8604 28.488 67.1324 27.8107 67.1324 27C67.1324 26.1893 66.8604 25.512 66.3164 24.968C65.7724 24.424 65.1004 24.152 64.3004 24.152C63.511 24.152 62.8444 24.424 62.3004 24.968C61.7564 25.512 61.4844 26.1893 61.4844 27C61.4844 27.8107 61.7564 28.488 62.3004 29.032C62.8444 29.576 63.511 29.848 64.3004 29.848ZM70.1654 31V19.32H71.5574V31H70.1654ZM73.681 31V19.32H75.073V31H73.681ZM83.8206 23H85.2126V31H83.8206V29.624C83.1273 30.68 82.1193 31.208 80.7966 31.208C79.6766 31.208 78.722 30.8027 77.9326 29.992C77.1433 29.1707 76.7486 28.1733 76.7486 27C76.7486 25.8267 77.1433 24.8347 77.9326 24.024C78.722 23.2027 79.6766 22.792 80.7966 22.792C82.1193 22.792 83.1273 23.32 83.8206 24.376V23ZM80.9726 29.864C81.7833 29.864 82.4606 29.592 83.0046 29.048C83.5486 28.4933 83.8206 27.8107 83.8206 27C83.8206 26.1893 83.5486 25.512 83.0046 24.968C82.4606 24.4133 81.7833 24.136 80.9726 24.136C80.1726 24.136 79.5006 24.4133 78.9566 24.968C78.4126 25.512 78.1406 26.1893 78.1406 27C78.1406 27.8107 78.4126 28.4933 78.9566 29.048C79.5006 29.592 80.1726 29.864 80.9726 29.864ZM88.7136 24.344C89.1723 23.352 90.0043 22.856 91.2096 22.856V24.312C90.527 24.28 89.9403 24.4613 89.4496 24.856C88.959 25.2507 88.7136 25.8853 88.7136 26.76V31H87.3216V23H88.7136V24.344ZM98.2036 32.6C97.0303 30.2533 96.4436 27.8533 96.4436 25.4C96.4436 22.9467 97.0303 20.5467 98.2036 18.2H99.5956C98.4223 20.5467 97.8356 22.9467 97.8356 25.4C97.8356 27.8533 98.4223 30.2533 99.5956 32.6H98.2036ZM108.288 30.136C107.509 30.8507 106.501 31.208 105.264 31.208C104.027 31.208 103.013 30.8507 102.224 30.136C101.445 29.4107 101.056 28.4453 101.056 27.24V19.8H102.544V27.176C102.544 27.9653 102.779 28.5947 103.248 29.064C103.717 29.5227 104.389 29.752 105.264 29.752C106.139 29.752 106.811 29.5227 107.28 29.064C107.749 28.5947 107.984 27.9653 107.984 27.176V19.8H109.456V27.24C109.456 28.4453 109.067 29.4107 108.288 30.136ZM115.347 31.208C114.302 31.208 113.406 30.9627 112.659 30.472C111.923 29.9813 111.406 29.3093 111.107 28.456L112.387 27.72C112.825 29.0747 113.822 29.752 115.379 29.752C116.147 29.752 116.734 29.5973 117.139 29.288C117.545 28.968 117.747 28.5467 117.747 28.024C117.747 27.4907 117.545 27.0907 117.139 26.824C116.734 26.5573 116.057 26.2747 115.107 25.976C114.638 25.8267 114.281 25.7093 114.035 25.624C113.79 25.528 113.481 25.3893 113.107 25.208C112.745 25.016 112.473 24.824 112.291 24.632C112.11 24.4293 111.945 24.168 111.795 23.848C111.657 23.528 111.587 23.1653 111.587 22.76C111.587 21.7893 111.929 21.0213 112.611 20.456C113.294 19.88 114.126 19.592 115.107 19.592C115.993 19.592 116.761 19.816 117.411 20.264C118.073 20.712 118.569 21.304 118.899 22.04L117.651 22.76C117.171 21.608 116.323 21.032 115.107 21.032C114.499 21.032 114.009 21.1813 113.635 21.48C113.262 21.7787 113.075 22.184 113.075 22.696C113.075 23.1867 113.251 23.56 113.603 23.816C113.955 24.072 114.563 24.3387 115.427 24.616C115.737 24.712 115.955 24.7813 116.083 24.824C116.211 24.8667 116.409 24.9413 116.675 25.048C116.953 25.1547 117.155 25.24 117.283 25.304C117.411 25.368 117.582 25.4587 117.795 25.576C118.019 25.6933 118.185 25.8053 118.291 25.912C118.398 26.0187 118.521 26.152 118.659 26.312C118.809 26.4613 118.915 26.616 118.979 26.776C119.043 26.936 119.097 27.1227 119.139 27.336C119.193 27.5387 119.219 27.7573 119.219 27.992C119.219 28.9733 118.862 29.7573 118.147 30.344C117.433 30.92 116.499 31.208 115.347 31.208ZM125.271 19.8C126.796 19.8 128.06 20.344 129.063 21.432C130.076 22.5093 130.583 23.832 130.583 25.4C130.583 26.968 130.076 28.296 129.063 29.384C128.06 30.4613 126.796 31 125.271 31H120.903V19.8H125.271ZM125.271 29.592C126.412 29.592 127.346 29.192 128.071 28.392C128.796 27.592 129.159 26.5947 129.159 25.4C129.159 24.2053 128.796 23.208 128.071 22.408C127.346 21.608 126.412 21.208 125.271 21.208H122.391V29.592H125.271ZM132.98 32.6H131.588C132.761 30.2533 133.348 27.8533 133.348 25.4C133.348 22.9467 132.761 20.5467 131.588 18.2H132.98C134.153 20.5467 134.74 22.9467 134.74 25.4C134.74 27.8533 134.153 30.2533 132.98 32.6Z" fill="#000002"/>
<path d="M51.24 48.876C52.032 48.876 52.7 49.112 53.244 49.584C53.796 50.048 54.072 50.692 54.072 51.516C54.072 52.332 53.792 52.976 53.232 53.448C52.672 53.92 51.992 54.156 51.192 54.156C50.552 54.156 49.98 54.004 49.476 53.7C48.972 53.388 48.62 52.94 48.42 52.356L49.368 51.816C49.48 52.224 49.696 52.536 50.016 52.752C50.336 52.96 50.728 53.064 51.192 53.064C51.72 53.064 52.148 52.928 52.476 52.656C52.804 52.384 52.968 52.004 52.968 51.516C52.968 51.028 52.804 50.648 52.476 50.376C52.148 50.096 51.728 49.956 51.216 49.956H48.84L49.152 45.6H53.748V46.644H50.16L50.016 48.876H51.24ZM54.6144 45.6H59.8584V46.596L56.7984 54H55.6344L58.6704 46.656H54.6144V45.6ZM60.5375 54V53.088L63.5015 50.064C64.2935 49.272 64.6895 48.592 64.6895 48.024C64.6895 47.552 64.5455 47.184 64.2575 46.92C63.9695 46.656 63.6175 46.524 63.2015 46.524C62.4095 46.524 61.8335 46.9 61.4735 47.652L60.5375 47.1C60.8015 46.556 61.1655 46.144 61.6295 45.864C62.1015 45.584 62.6215 45.444 63.1895 45.444C63.8935 45.444 64.5055 45.676 65.0255 46.14C65.5455 46.604 65.8055 47.228 65.8055 48.012C65.8055 48.86 65.3055 49.784 64.3055 50.784L62.1575 52.92H65.9615V54H60.5375ZM67.8856 54.132C67.6696 54.132 67.4856 54.056 67.3336 53.904C67.1816 53.752 67.1056 53.568 67.1056 53.352C67.1056 53.136 67.1816 52.952 67.3336 52.8C67.4856 52.648 67.6696 52.572 67.8856 52.572C68.1096 52.572 68.2936 52.648 68.4376 52.8C68.5896 52.952 68.6656 53.136 68.6656 53.352C68.6656 53.568 68.5896 53.752 68.4376 53.904C68.2936 54.056 68.1096 54.132 67.8856 54.132ZM76.1436 49.044C76.7836 49.164 77.3076 49.44 77.7156 49.872C78.1236 50.304 78.3276 50.852 78.3276 51.516C78.3276 52.332 78.0476 52.976 77.4876 53.448C76.9276 53.92 76.2476 54.156 75.4476 54.156C74.8076 54.156 74.2396 54.012 73.7436 53.724C73.2476 53.428 72.8956 53.004 72.6876 52.452L73.6236 51.9C73.8716 52.676 74.4796 53.064 75.4476 53.064C75.9676 53.064 76.3916 52.928 76.7196 52.656C77.0476 52.384 77.2116 52.004 77.2116 51.516C77.2116 51.028 77.0476 50.648 76.7196 50.376C76.3916 50.096 75.9676 49.956 75.4476 49.956H75.1596L74.7156 49.272L76.6596 46.644H72.9276V45.6H77.9676V46.584L76.1436 49.044ZM82.4483 49.044C83.0883 49.164 83.6123 49.44 84.0203 49.872C84.4283 50.304 84.6323 50.852 84.6323 51.516C84.6323 52.332 84.3523 52.976 83.7923 53.448C83.2323 53.92 82.5523 54.156 81.7523 54.156C81.1123 54.156 80.5443 54.012 80.0483 53.724C79.5523 53.428 79.2003 53.004 78.9923 52.452L79.9283 51.9C80.1763 52.676 80.7843 53.064 81.7523 53.064C82.2723 53.064 82.6963 52.928 83.0243 52.656C83.3523 52.384 83.5163 52.004 83.5163 51.516C83.5163 51.028 83.3523 50.648 83.0243 50.376C82.6963 50.096 82.2723 49.956 81.7523 49.956H81.4643L81.0203 49.272L82.9643 46.644H79.2323V45.6H84.2723V46.584L82.4483 49.044Z" fill="#000002" fill-opacity="0.4"/>
<rect x="0.5" y="0.5" width="219" height="72" rx="4.5" stroke="url(#paint1_linear_49_198)"/>
<defs>
<linearGradient id="paint0_linear_49_198" x1="220" y1="73" x2="-1.87981e-06" y2="13" gradientUnits="userSpaceOnUse">
<stop stop-color="white"/>
<stop offset="1" stop-color="white" stop-opacity="0"/>
</linearGradient>
<linearGradient id="paint1_linear_49_198" x1="204" y1="1.03083e-05" x2="110" y2="73" gradientUnits="userSpaceOnUse">
<stop stop-color="white" stop-opacity="0"/>
<stop offset="1" stop-color="white"/>
</linearGradient>
</defs>
</svg>
