<svg width="220" height="73" viewBox="0 0 220 73" fill="none" xmlns="http://www.w3.org/2000/svg">
<g filter="url(#filter0_b_106_1653)">
<rect width="220" height="73" rx="5" fill="url(#paint0_linear_106_1653)" fill-opacity="0.4"/>
<circle cx="28" cy="28" r="12" fill="#559AEB"/>
<path d="M31.24 30.008C31.24 30.8827 30.952 31.6027 30.376 32.168C29.8 32.7333 29.0533 33.0693 28.136 33.176V34.6H27.128V33.192C26.2533 33.128 25.5067 32.888 24.888 32.472C24.28 32.056 23.8373 31.496 23.56 30.792L24.84 30.056C25.2027 31.048 25.9653 31.608 27.128 31.736V27.864C26.648 27.6933 26.2587 27.5387 25.96 27.4C25.672 27.2507 25.368 27.0533 25.048 26.808C24.728 26.5627 24.488 26.264 24.328 25.912C24.1787 25.5493 24.104 25.1333 24.104 24.664C24.104 23.8 24.392 23.096 24.968 22.552C25.544 22.008 26.264 21.6933 27.128 21.608V20.2H28.136V21.624C28.776 21.7093 29.3467 21.9333 29.848 22.296C30.3493 22.6587 30.7387 23.1493 31.016 23.768L29.768 24.472C29.4587 23.6933 28.9147 23.2293 28.136 23.08V26.76C28.6267 26.9413 29.016 27.1013 29.304 27.24C29.592 27.3787 29.9067 27.576 30.248 27.832C30.5893 28.0773 30.84 28.3813 31 28.744C31.16 29.1067 31.24 29.528 31.24 30.008ZM25.576 24.664C25.576 25.0693 25.6987 25.4 25.944 25.656C26.1893 25.912 26.584 26.152 27.128 26.376V23.064C26.6587 23.128 26.28 23.304 25.992 23.592C25.7147 23.8693 25.576 24.2267 25.576 24.664ZM28.136 31.704C28.648 31.6293 29.0427 31.4427 29.32 31.144C29.608 30.8347 29.752 30.4613 29.752 30.024C29.752 29.5867 29.6187 29.24 29.352 28.984C29.096 28.7173 28.6907 28.4667 28.136 28.232V31.704Z" fill="white"/>
<path d="M53.568 19.8C55.0933 19.8 56.3573 20.344 57.36 21.432C58.3733 22.5093 58.88 23.832 58.88 25.4C58.88 26.968 58.3733 28.296 57.36 29.384C56.3573 30.4613 55.0933 31 53.568 31H49.2V19.8H53.568ZM53.568 29.592C54.7093 29.592 55.6427 29.192 56.368 28.392C57.0933 27.592 57.456 26.5947 57.456 25.4C57.456 24.2053 57.0933 23.208 56.368 22.408C55.6427 21.608 54.7093 21.208 53.568 21.208H50.688V29.592H53.568ZM67.2924 29.992C66.471 30.8027 65.4737 31.208 64.3004 31.208C63.127 31.208 62.1297 30.8027 61.3084 29.992C60.4977 29.1813 60.0924 28.184 60.0924 27C60.0924 25.816 60.4977 24.8187 61.3084 24.008C62.1297 23.1973 63.127 22.792 64.3004 22.792C65.4737 22.792 66.471 23.1973 67.2924 24.008C68.1137 24.8187 68.5244 25.816 68.5244 27C68.5244 28.184 68.1137 29.1813 67.2924 29.992ZM64.3004 29.848C65.1004 29.848 65.7724 29.576 66.3164 29.032C66.8604 28.488 67.1324 27.8107 67.1324 27C67.1324 26.1893 66.8604 25.512 66.3164 24.968C65.7724 24.424 65.1004 24.152 64.3004 24.152C63.511 24.152 62.8444 24.424 62.3004 24.968C61.7564 25.512 61.4844 26.1893 61.4844 27C61.4844 27.8107 61.7564 28.488 62.3004 29.032C62.8444 29.576 63.511 29.848 64.3004 29.848ZM70.1654 31V19.32H71.5574V31H70.1654ZM73.681 31V19.32H75.073V31H73.681ZM83.8206 23H85.2126V31H83.8206V29.624C83.1273 30.68 82.1193 31.208 80.7966 31.208C79.6766 31.208 78.722 30.8027 77.9326 29.992C77.1433 29.1707 76.7486 28.1733 76.7486 27C76.7486 25.8267 77.1433 24.8347 77.9326 24.024C78.722 23.2027 79.6766 22.792 80.7966 22.792C82.1193 22.792 83.1273 23.32 83.8206 24.376V23ZM80.9726 29.864C81.7833 29.864 82.4606 29.592 83.0046 29.048C83.5486 28.4933 83.8206 27.8107 83.8206 27C83.8206 26.1893 83.5486 25.512 83.0046 24.968C82.4606 24.4133 81.7833 24.136 80.9726 24.136C80.1726 24.136 79.5006 24.4133 78.9566 24.968C78.4126 25.512 78.1406 26.1893 78.1406 27C78.1406 27.8107 78.4126 28.4933 78.9566 29.048C79.5006 29.592 80.1726 29.864 80.9726 29.864ZM88.7136 24.344C89.1723 23.352 90.0043 22.856 91.2096 22.856V24.312C90.527 24.28 89.9403 24.4613 89.4496 24.856C88.959 25.2507 88.7136 25.8853 88.7136 26.76V31H87.3216V23H88.7136V24.344ZM98.2036 32.6C97.0303 30.2533 96.4436 27.8533 96.4436 25.4C96.4436 22.9467 97.0303 20.5467 98.2036 18.2H99.5956C98.4223 20.5467 97.8356 22.9467 97.8356 25.4C97.8356 27.8533 98.4223 30.2533 99.5956 32.6H98.2036ZM108.288 30.136C107.509 30.8507 106.501 31.208 105.264 31.208C104.027 31.208 103.013 30.8507 102.224 30.136C101.445 29.4107 101.056 28.4453 101.056 27.24V19.8H102.544V27.176C102.544 27.9653 102.779 28.5947 103.248 29.064C103.717 29.5227 104.389 29.752 105.264 29.752C106.139 29.752 106.811 29.5227 107.28 29.064C107.749 28.5947 107.984 27.9653 107.984 27.176V19.8H109.456V27.24C109.456 28.4453 109.067 29.4107 108.288 30.136ZM115.347 31.208C114.302 31.208 113.406 30.9627 112.659 30.472C111.923 29.9813 111.406 29.3093 111.107 28.456L112.387 27.72C112.825 29.0747 113.822 29.752 115.379 29.752C116.147 29.752 116.734 29.5973 117.139 29.288C117.545 28.968 117.747 28.5467 117.747 28.024C117.747 27.4907 117.545 27.0907 117.139 26.824C116.734 26.5573 116.057 26.2747 115.107 25.976C114.638 25.8267 114.281 25.7093 114.035 25.624C113.79 25.528 113.481 25.3893 113.107 25.208C112.745 25.016 112.473 24.824 112.291 24.632C112.11 24.4293 111.945 24.168 111.795 23.848C111.657 23.528 111.587 23.1653 111.587 22.76C111.587 21.7893 111.929 21.0213 112.611 20.456C113.294 19.88 114.126 19.592 115.107 19.592C115.993 19.592 116.761 19.816 117.411 20.264C118.073 20.712 118.569 21.304 118.899 22.04L117.651 22.76C117.171 21.608 116.323 21.032 115.107 21.032C114.499 21.032 114.009 21.1813 113.635 21.48C113.262 21.7787 113.075 22.184 113.075 22.696C113.075 23.1867 113.251 23.56 113.603 23.816C113.955 24.072 114.563 24.3387 115.427 24.616C115.737 24.712 115.955 24.7813 116.083 24.824C116.211 24.8667 116.409 24.9413 116.675 25.048C116.953 25.1547 117.155 25.24 117.283 25.304C117.411 25.368 117.582 25.4587 117.795 25.576C118.019 25.6933 118.185 25.8053 118.291 25.912C118.398 26.0187 118.521 26.152 118.659 26.312C118.809 26.4613 118.915 26.616 118.979 26.776C119.043 26.936 119.097 27.1227 119.139 27.336C119.193 27.5387 119.219 27.7573 119.219 27.992C119.219 28.9733 118.862 29.7573 118.147 30.344C117.433 30.92 116.499 31.208 115.347 31.208ZM125.271 19.8C126.796 19.8 128.06 20.344 129.063 21.432C130.076 22.5093 130.583 23.832 130.583 25.4C130.583 26.968 130.076 28.296 129.063 29.384C128.06 30.4613 126.796 31 125.271 31H120.903V19.8H125.271ZM125.271 29.592C126.412 29.592 127.346 29.192 128.071 28.392C128.796 27.592 129.159 26.5947 129.159 25.4C129.159 24.2053 128.796 23.208 128.071 22.408C127.346 21.608 126.412 21.208 125.271 21.208H122.391V29.592H125.271ZM132.98 32.6H131.588C132.761 30.2533 133.348 27.8533 133.348 25.4C133.348 22.9467 132.761 20.5467 131.588 18.2H132.98C134.153 20.5467 134.74 22.9467 134.74 25.4C134.74 27.8533 134.153 30.2533 132.98 32.6Z" fill="white"/>
<path d="M50.376 45.6H51.336V54H50.232V46.8L48.444 47.328L48.168 46.368L50.376 45.6ZM55.7093 54V53.088L58.6733 50.064C59.4653 49.272 59.8613 48.592 59.8613 48.024C59.8613 47.552 59.7173 47.184 59.4293 46.92C59.1413 46.656 58.7893 46.524 58.3733 46.524C57.5813 46.524 57.0053 46.9 56.6453 47.652L55.7093 47.1C55.9733 46.556 56.3373 46.144 56.8013 45.864C57.2733 45.584 57.7933 45.444 58.3613 45.444C59.0653 45.444 59.6773 45.676 60.1973 46.14C60.7173 46.604 60.9773 47.228 60.9773 48.012C60.9773 48.86 60.4773 49.784 59.4773 50.784L57.3293 52.92H61.1333V54H55.7093ZM64.7517 48.876C65.5437 48.876 66.2117 49.112 66.7557 49.584C67.3077 50.048 67.5837 50.692 67.5837 51.516C67.5837 52.332 67.3037 52.976 66.7437 53.448C66.1837 53.92 65.5037 54.156 64.7037 54.156C64.0637 54.156 63.4917 54.004 62.9877 53.7C62.4837 53.388 62.1317 52.94 61.9317 52.356L62.8797 51.816C62.9917 52.224 63.2077 52.536 63.5277 52.752C63.8477 52.96 64.2397 53.064 64.7037 53.064C65.2317 53.064 65.6597 52.928 65.9877 52.656C66.3157 52.384 66.4797 52.004 66.4797 51.516C66.4797 51.028 66.3157 50.648 65.9877 50.376C65.6597 50.096 65.2397 49.956 64.7277 49.956H62.3517L62.6637 45.6H67.2597V46.644H63.6717L63.5277 48.876H64.7517ZM72.9233 49.656C73.3313 49.864 73.6513 50.144 73.8833 50.496C74.1153 50.848 74.2313 51.248 74.2313 51.696C74.2313 52.464 73.9633 53.068 73.4273 53.508C72.8913 53.94 72.1993 54.156 71.3513 54.156C70.5113 54.156 69.8233 53.94 69.2873 53.508C68.7513 53.068 68.4833 52.464 68.4833 51.696C68.4833 51.248 68.5993 50.848 68.8313 50.496C69.0633 50.144 69.3833 49.864 69.7913 49.656C69.1033 49.224 68.7593 48.612 68.7593 47.82C68.7593 47.06 69.0113 46.476 69.5153 46.068C70.0273 45.652 70.6393 45.444 71.3513 45.444C72.0713 45.444 72.6833 45.652 73.1873 46.068C73.6993 46.476 73.9553 47.06 73.9553 47.82C73.9553 48.612 73.6113 49.224 72.9233 49.656ZM71.3513 46.512C70.9273 46.512 70.5713 46.624 70.2833 46.848C70.0033 47.072 69.8633 47.404 69.8633 47.844C69.8633 48.268 70.0073 48.6 70.2953 48.84C70.5833 49.072 70.9353 49.188 71.3513 49.188C71.7673 49.188 72.1193 49.072 72.4073 48.84C72.6953 48.6 72.8393 48.268 72.8393 47.844C72.8393 47.404 72.6993 47.072 72.4193 46.848C72.1393 46.624 71.7833 46.512 71.3513 46.512ZM71.3513 53.088C71.8873 53.088 72.3153 52.964 72.6353 52.716C72.9633 52.46 73.1273 52.096 73.1273 51.624C73.1273 51.16 72.9633 50.804 72.6353 50.556C72.3153 50.3 71.8873 50.172 71.3513 50.172C70.8233 50.172 70.3953 50.3 70.0673 50.556C69.7473 50.804 69.5873 51.16 69.5873 51.624C69.5873 52.096 69.7473 52.46 70.0673 52.716C70.3953 52.964 70.8233 53.088 71.3513 53.088ZM83.8516 52.968C83.2836 53.76 82.4876 54.156 81.4636 54.156C80.4396 54.156 79.6436 53.76 79.0756 52.968C78.5076 52.176 78.2236 51.12 78.2236 49.8C78.2236 48.48 78.5076 47.424 79.0756 46.632C79.6436 45.84 80.4396 45.444 81.4636 45.444C82.4876 45.444 83.2836 45.84 83.8516 46.632C84.4196 47.424 84.7036 48.48 84.7036 49.8C84.7036 51.12 84.4196 52.176 83.8516 52.968ZM79.8916 52.212C80.2596 52.78 80.7836 53.064 81.4636 53.064C82.1436 53.064 82.6676 52.78 83.0356 52.212C83.4116 51.644 83.5996 50.84 83.5996 49.8C83.5996 48.76 83.4116 47.956 83.0356 47.388C82.6676 46.812 82.1436 46.524 81.4636 46.524C80.7836 46.524 80.2596 46.808 79.8916 47.376C79.5236 47.944 79.3396 48.752 79.3396 49.8C79.3396 50.84 79.5236 51.644 79.8916 52.212ZM91.9502 51.36V52.404H90.9302V54H89.8142V52.404H85.5302V51.36L88.5422 45.6H89.7422L86.7302 51.36H89.8142V48.984H90.9302V51.36H91.9502ZM98.0888 48.264C98.0888 48.912 97.9168 49.476 97.5728 49.956H97.5848L94.8728 54H93.6128L95.6048 51.06C95.4288 51.076 95.2928 51.084 95.1968 51.084C94.3488 51.084 93.6528 50.824 93.1088 50.304C92.5728 49.776 92.3048 49.096 92.3048 48.264C92.3048 47.432 92.5728 46.756 93.1088 46.236C93.6528 45.708 94.3488 45.444 95.1968 45.444C96.0448 45.444 96.7368 45.708 97.2728 46.236C97.8168 46.756 98.0888 47.432 98.0888 48.264ZM93.9008 46.992C93.5728 47.312 93.4088 47.736 93.4088 48.264C93.4088 48.792 93.5728 49.22 93.9008 49.548C94.2368 49.868 94.6688 50.028 95.1968 50.028C95.7248 50.028 96.1528 49.868 96.4808 49.548C96.8168 49.22 96.9848 48.792 96.9848 48.264C96.9848 47.736 96.8208 47.312 96.4928 46.992C96.1648 46.672 95.7328 46.512 95.1968 46.512C94.6688 46.512 94.2368 46.672 93.9008 46.992ZM98.202 54.132C97.986 54.132 97.802 54.056 97.65 53.904C97.498 53.752 97.422 53.568 97.422 53.352C97.422 53.136 97.498 52.952 97.65 52.8C97.802 52.648 97.986 52.572 98.202 52.572C98.426 52.572 98.61 52.648 98.754 52.8C98.906 52.952 98.982 53.136 98.982 53.352C98.982 53.568 98.906 53.752 98.754 53.904C98.61 54.056 98.426 54.132 98.202 54.132ZM106.46 49.044C107.1 49.164 107.624 49.44 108.032 49.872C108.44 50.304 108.644 50.852 108.644 51.516C108.644 52.332 108.364 52.976 107.804 53.448C107.244 53.92 106.564 54.156 105.764 54.156C105.124 54.156 104.556 54.012 104.06 53.724C103.564 53.428 103.212 53.004 103.004 52.452L103.94 51.9C104.188 52.676 104.796 53.064 105.764 53.064C106.284 53.064 106.708 52.928 107.036 52.656C107.364 52.384 107.528 52.004 107.528 51.516C107.528 51.028 107.364 50.648 107.036 50.376C106.708 50.096 106.284 49.956 105.764 49.956H105.476L105.032 49.272L106.976 46.644H103.244V45.6H108.284V46.584L106.46 49.044ZM112.765 49.044C113.405 49.164 113.929 49.44 114.337 49.872C114.745 50.304 114.949 50.852 114.949 51.516C114.949 52.332 114.669 52.976 114.109 53.448C113.549 53.92 112.869 54.156 112.069 54.156C111.429 54.156 110.861 54.012 110.365 53.724C109.869 53.428 109.517 53.004 109.309 52.452L110.245 51.9C110.493 52.676 111.101 53.064 112.069 53.064C112.589 53.064 113.013 52.928 113.341 52.656C113.669 52.384 113.833 52.004 113.833 51.516C113.833 51.028 113.669 50.648 113.341 50.376C113.013 50.096 112.589 49.956 112.069 49.956H111.781L111.337 49.272L113.281 46.644H109.549V45.6H114.589V46.584L112.765 49.044Z" fill="white" fill-opacity="0.5"/>
</g>
<defs>
<filter id="filter0_b_106_1653" x="-25" y="-25" width="270" height="123" filterUnits="userSpaceOnUse" color-interpolation-filters="sRGB">
<feFlood flood-opacity="0" result="BackgroundImageFix"/>
<feGaussianBlur in="BackgroundImageFix" stdDeviation="12.5"/>
<feComposite in2="SourceAlpha" operator="in" result="effect1_backgroundBlur_106_1653"/>
<feBlend mode="normal" in="SourceGraphic" in2="effect1_backgroundBlur_106_1653" result="shape"/>
</filter>
<linearGradient id="paint0_linear_106_1653" x1="220" y1="73" x2="-1.87981e-06" y2="13" gradientUnits="userSpaceOnUse">
<stop stop-color="#040310" stop-opacity="0.42"/>
<stop offset="1" stop-color="#040310" stop-opacity="0.43"/>
</linearGradient>
</defs>
</svg>
